<svg xmlns="http://www.w3.org/2000/svg" width="25.65" height="9.999" viewBox="0 0 25.65 9.999">
  <g id="Grupo_197" data-name="Grupo 197" transform="translate(-2734.089 -972)">
    <g id="Glyphs_Arrow_1_-_Light" data-name="Glyphs/ Arrow 1 - Light" transform="translate(2734.089 972)">
      <path id="Combined_Shape" data-name="Combined Shape" d="M4.41,9.824.176,5.557A.607.607,0,0,1,.014,5a.606.606,0,0,1,.162-.556L4.41.177a.6.6,0,0,1,.848,0,.608.608,0,0,1,0,.853L1.917,4.4H25.046a.6.6,0,1,1,0,1.207H1.917L5.258,8.969a.609.609,0,0,1,0,.854.6.6,0,0,1-.848,0Z" transform="translate(0 0)" fill="#626262"/>
    </g>
  </g>
</svg>
