<svg xmlns="http://www.w3.org/2000/svg" width="20.086" height="17.572" viewBox="0 0 20.086 17.572">
  <g id="Glyphs_Arrow_1_-_Light" data-name="Glyphs/ Arrow 1 - Light" transform="translate(0 -1.214)">
    <path id="Combined_Shape" data-name="Combined Shape" d="M7.75,17.261.309,9.763a1.064,1.064,0,0,1-.284-.977,1.064,1.064,0,0,1,.284-.977L7.75.31a1.047,1.047,0,0,1,1.489,0,1.068,1.068,0,0,1,0,1.5L3.367,7.726H19.086a1,1,0,0,1,1,1v.121a1,1,0,0,1-1,1H3.367l5.871,5.915a1.068,1.068,0,0,1,0,1.5,1.047,1.047,0,0,1-1.489,0Z" transform="translate(0 1.214)" fill="#f8f8f8"/>
  </g>
</svg>
