<svg id="Component_50_1" data-name="Component 50 – 1" xmlns="http://www.w3.org/2000/svg" width="30" height="18.367" viewBox="0 0 30 18.367">
  <path id="Path_455" data-name="Path 455" d="M-115.418,101.815l-1.836-5.717a2.916,2.916,0,0,0-2.787-2.022h-23.287a2.076,2.076,0,0,0-2.084,2.064V108.1a1.788,1.788,0,0,0,1.792,1.78h2.457a3.454,3.454,0,0,0,3.34,2.565,3.453,3.453,0,0,0,3.34-2.565h7.105a3.453,3.453,0,0,0,3.34,2.565,3.454,3.454,0,0,0,3.34-2.565h3.974a1.309,1.309,0,0,0,1.311-1.3v-6.58Zm-28.728-5.675a.808.808,0,0,1,.817-.8h23.287a1.651,1.651,0,0,1,1.58,1.14l.025.079h-25.71Zm18.065,3.551a.633.633,0,0,0-.633.633v1.736h-.581V97.829h4.312v4.231h-2.465v-1.736A.634.634,0,0,0-126.081,99.691Zm-5.511,0a.634.634,0,0,0-.633.633v1.736h-.763V97.829h4.313v4.231h-2.284v-1.736A.633.633,0,0,0-131.591,99.691Zm-5.651,0a.633.633,0,0,0-.633.633v1.736h-.69V97.829h4.312v4.231h-2.355v-1.736A.634.634,0,0,0-137.243,99.691Zm-6.9-1.862h4.313v4.231h-2.429v-1.736a.634.634,0,0,0-.633-.633.633.633,0,0,0-.633.633v1.736h-.617Zm6.323,13.348a2.177,2.177,0,0,1-2.189-2.16,2.177,2.177,0,0,1,2.189-2.16,2.177,2.177,0,0,1,2.189,2.16A2.177,2.177,0,0,1-137.823,111.176Zm10.357-2.565h-6.928a3.448,3.448,0,0,0-3.429-3.021,3.449,3.449,0,0,0-3.429,3.021h-2.368a.52.52,0,0,1-.526-.513v-4.772h21.089v2.407a3.457,3.457,0,0,0-.981-.143A3.448,3.448,0,0,0-127.466,108.611Zm3.428,2.565a2.177,2.177,0,0,1-2.188-2.16,2.177,2.177,0,0,1,2.188-2.16,2.176,2.176,0,0,1,2.188,2.16A2.176,2.176,0,0,1-124.037,111.176Zm7.314-2.565h-3.886a3.41,3.41,0,0,0-1.181-2.191v-2.68l1.253.657a1.966,1.966,0,0,0,.913.225h2.928Zm.036-5.255h-2.937a.722.722,0,0,1-.184-.026v-1.975a.633.633,0,0,0-.633-.633.633.633,0,0,0-.633.633v1.331l-.642-.337v-4.52h3.683l1.353,4.25Z" transform="translate(145.412 -94.076)"/>
  <path id="Path_456" data-name="Path 456" d="M-134.011,116.094a1,1,0,0,0-1.006,1,1,1,0,0,0,1.006,1,1,1,0,0,0,1.006-1A1,1,0,0,0-134.011,116.094Z" transform="translate(141.6 -102.149)"/>
  <path id="Path_457" data-name="Path 457" d="M-112.218,116.094a1,1,0,0,0-1.006,1,1,1,0,0,0,1.006,1,1,1,0,0,0,1.006-1A1,1,0,0,0-112.218,116.094Z" transform="translate(133.61 -102.149)"/>
  <path id="Path_458" data-name="Path 458" d="M-106.229,111.325h-.58a.633.633,0,0,0-.633.633.633.633,0,0,0,.633.633h.58a.633.633,0,0,0,.633-.633A.633.633,0,0,0-106.229,111.325Z" transform="translate(131.49 -100.401)"/>
</svg>
