<svg id="ICON_-_DISCOUNT" data-name="ICON - DISCOUNT" xmlns="http://www.w3.org/2000/svg" width="18" height="18" viewBox="0 0 18 18">
  <path id="Trazado_93" data-name="Trazado 93" d="M987.112,713.62a.5.5,0,0,1,.725,0,.5.5,0,0,1,.144.359.506.506,0,0,1-.154.357l-6.476,6.477c-.015.016-.03.031-.046.045a.5.5,0,0,1-.714-.043.509.509,0,0,1,.047-.718Zm1.671,6.023a2.124,2.124,0,1,1-2.123-2.124A2.125,2.125,0,0,1,988.783,719.643Zm-1.011,0a1.112,1.112,0,1,0-1.112,1.112A1.1,1.1,0,0,0,987.772,719.643Zm-3.843-4.854a2.124,2.124,0,1,1-2.123-2.124A2.125,2.125,0,0,1,983.929,714.789Zm-1.011,0a1.112,1.112,0,1,0-1.112,1.112A1.1,1.1,0,0,0,982.918,714.789Zm10.315,2.427a2.175,2.175,0,0,1-.49,1.251l-.03.045a4.054,4.054,0,0,0-.495.846,4.147,4.147,0,0,0,.009.974l0,.042a1.861,1.861,0,0,1-1.258,2.185l-.042.02a4.271,4.271,0,0,0-.855.481,4.1,4.1,0,0,0-.481.849l-.024.05a1.839,1.839,0,0,1-2.161,1.251l-.061,0a3.841,3.841,0,0,0-.975,0,4.154,4.154,0,0,0-.845.495l-.046.03a1.842,1.842,0,0,1-2.5,0l-.045-.03a4.281,4.281,0,0,0-.846-.495,1.344,1.344,0,0,0-.319-.027c-.156,0-.37.009-.656.03l-.063,0a2.159,2.159,0,0,1-1.32-.2,2.182,2.182,0,0,1-.84-1.051l-.024-.049a3.97,3.97,0,0,0-.481-.849,4.19,4.19,0,0,0-.854-.481l-.042-.02a1.843,1.843,0,0,1-1.252-2.165l0-.062a3.8,3.8,0,0,0,0-.975,4.1,4.1,0,0,0-.494-.845l-.03-.045a1.844,1.844,0,0,1,0-2.5l.031-.045a4.1,4.1,0,0,0,.494-.846,3.8,3.8,0,0,0,0-.975l0-.061a1.844,1.844,0,0,1,1.253-2.165l.04-.02a4.169,4.169,0,0,0,.855-.48,3.985,3.985,0,0,0,.481-.849l.024-.049a1.855,1.855,0,0,1,2.182-1.256l.041,0a4.127,4.127,0,0,0,.975.009,4.237,4.237,0,0,0,.846-.494l.046-.031a2.175,2.175,0,0,1,1.249-.488h0a2.175,2.175,0,0,1,1.251.49l.044.03a4.128,4.128,0,0,0,.845.495,4.209,4.209,0,0,0,.975-.01l.041,0a1.855,1.855,0,0,1,2.182,1.256l.023.049a4.094,4.094,0,0,0,.481.849,4.271,4.271,0,0,0,.855.481l.042.02a2.177,2.177,0,0,1,1.053.844,2.2,2.2,0,0,1,.2,1.342l0,.042a4.148,4.148,0,0,0-.009.974,4.1,4.1,0,0,0,.495.846l.03.045h0A2.176,2.176,0,0,1,993.233,717.216Zm-1.011,0a1.935,1.935,0,0,0-.347-.727l-.093-.135-.019-.026a3.136,3.136,0,0,1-.519-.99,3.063,3.063,0,0,1-.044-1.105c.006-.069.012-.136.017-.2a.94.94,0,0,0-.733-1.267l-.195-.092a3,3,0,0,1-.928-.584,3.033,3.033,0,0,1-.585-.929c-.031-.067-.061-.132-.092-.194a1.969,1.969,0,0,0-.458-.669,1.992,1.992,0,0,0-.809-.064l-.219.019a2.946,2.946,0,0,1-1.089-.041,3.036,3.036,0,0,1-.976-.515c-.059-.042-.118-.084-.175-.122a1.941,1.941,0,0,0-.726-.346h0a1.9,1.9,0,0,0-.733.346c-.051.034-.1.072-.157.11l-.027.019a2.958,2.958,0,0,1-.962.509,3.009,3.009,0,0,1-1.095.041c-.074-.006-.147-.013-.218-.018a1.952,1.952,0,0,0-.8.063,1.975,1.975,0,0,0-.458.669l-.067.142-.017.036a3.1,3.1,0,0,1-.6.945,3.007,3.007,0,0,1-.928.584c-.067.031-.133.061-.195.093a1.92,1.92,0,0,0-.663.457,1.961,1.961,0,0,0-.064.81c0,.065.011.132.017.2a2.538,2.538,0,0,1-.564,2.093l-.008.011c-.037.052-.072.1-.105.152a1.943,1.943,0,0,0-.346.726,1.9,1.9,0,0,0,.346.732c.035.053.073.106.111.16l.008.012a3.03,3.03,0,0,1,.512.974,3.084,3.084,0,0,1,.045,1.113c-.005.069-.012.135-.016.2a.938.938,0,0,0,.727,1.261c.052.026.1.051.161.077l.02.009a3.125,3.125,0,0,1,.943.6,3.093,3.093,0,0,1,.6.945l.017.035.067.143a.938.938,0,0,0,1.261.726l.2-.016a3.121,3.121,0,0,1,1.113.045,3.052,3.052,0,0,1,.974.512l.011.009.16.11a1.9,1.9,0,0,0,.733.347,1.955,1.955,0,0,0,.726-.346l.152-.1.012-.009a2.53,2.53,0,0,1,2.094-.563l.2.016a2.016,2.016,0,0,0,.81-.063,1.938,1.938,0,0,0,.457-.663c.03-.06.059-.123.092-.194a3,3,0,0,1,.585-.929,3.1,3.1,0,0,1,.943-.6l.18-.085a1.973,1.973,0,0,0,.668-.457,1.94,1.94,0,0,0,.064-.8c0-.065-.01-.132-.017-.2a3.083,3.083,0,0,1,.044-1.113,3.032,3.032,0,0,1,.513-.974l.007-.012c.039-.054.076-.107.11-.16A1.893,1.893,0,0,0,992.222,717.216Z" transform="translate(-975.233 -708.216)"/>
</svg>
