<svg xmlns="http://www.w3.org/2000/svg" width="14" height="14" viewBox="0 0 14 14">
  <path id="Fill_214" data-name="Fill 214" d="M12.17,14H1.739A1.741,1.741,0,0,1,0,12.26V1.822A1.872,1.872,0,0,1,.515.551,1.7,1.7,0,0,1,1.75,0h7V.875h-7a.952.952,0,0,0-.88.947V12.26a.871.871,0,0,0,.869.87H12.17a.956.956,0,0,0,.955-.88v-7H14v7a1.692,1.692,0,0,1-.555,1.235A1.885,1.885,0,0,1,12.17,14ZM2.052,12.381a.41.41,0,0,1-.341-.177.53.53,0,0,1-.045-.491L3.548,7.9a.843.843,0,0,1,.223-.451L10.532.688a.87.87,0,0,1,1.229,0L13.3,2.226a.87.87,0,0,1,0,1.23L6.537,10.222a.84.84,0,0,1-.45.223L2.281,12.327A.542.542,0,0,1,2.052,12.381Zm1.87-3.546h0L2.5,11.187a.231.231,0,0,0,.006.228.22.22,0,0,0,.189.1.263.263,0,0,0,.112-.026l2.35-1.423L3.922,8.835Zm5.37-5.676h0L4.386,8.069l.091.091.277.277.033.033.006.006,1.13,1.131,4.918-4.92L9.292,3.159Zm1.855-1.676a.431.431,0,0,0-.308.128l-.9.9,1.515,1.56.922-.922a.436.436,0,0,0,0-.615l-.922-.922A.432.432,0,0,0,11.147,1.484Z" fill="#fff"/>
</svg>
