<svg xmlns="http://www.w3.org/2000/svg" width="13.128" height="10" viewBox="0 0 13.128 10">
  <g id="email" transform="translate(0 -61)">
    <g id="Grupo_370" data-name="Grupo 370" transform="translate(0 61)">
      <path id="Trazado_447" data-name="Trazado 447" d="M11.974,61H1.154A1.156,1.156,0,0,0,0,62.154v7.692A1.156,1.156,0,0,0,1.154,71H11.974a1.156,1.156,0,0,0,1.154-1.154V62.154A1.156,1.156,0,0,0,11.974,61Zm-.159.769L6.589,67,1.317,61.769ZM.769,69.687V62.309l3.7,3.673Zm.544.544L5.02,66.524l1.3,1.288a.385.385,0,0,0,.543,0l1.266-1.266,3.687,3.687Zm11.046-.544L8.672,66l3.687-3.687Z" transform="translate(0 -61)" fill="#fff"/>
    </g>
  </g>
</svg>
