<svg id="ICON_-_EVENT" data-name="ICON - EVENT" xmlns="http://www.w3.org/2000/svg" width="20" height="19.999" viewBox="0 0 20 19.999">
  <path id="Trazado_94" data-name="Trazado 94" d="M1031.348,711.619l-.328.328a1.88,1.88,0,0,1-2.659-2.659l.328-.328-2.314-2.314-12.713,12.713,2.315,2.314.328-.328a1.88,1.88,0,0,1,2.659,2.659l-.329.329,2.315,2.314,12.712-12.712Zm-2.767,6.082-7.631,7.632-1.038-1.037a2.789,2.789,0,0,0-.291-3.607,2.827,2.827,0,0,0-3.612-.3l-1.033-1.032,7.632-7.633Zm3.768-3.767-3.111,3.11-5.974-5.974,3.111-3.111,1.034,1.033a2.827,2.827,0,0,0,.3,3.612,2.788,2.788,0,0,0,3.607.292Z" transform="translate(-1013.662 -706.646)"/>
</svg>
