<svg id="ICON_-_MALL" data-name="ICON - MALL" xmlns="http://www.w3.org/2000/svg" width="21" height="20.9" viewBox="0 0 21 20.9">
  <path id="Trazado_87" data-name="Trazado 87" d="M834.233,713.778a14.685,14.685,0,0,1-4.815-.964c-3.109-1.244-4.685-3.443-4.685-6.536a.5.5,0,0,0-1,0c0,3.085-1.568,5.281-4.662,6.526a14.737,14.737,0,0,1-4.839.974.5.5,0,0,0,0,1,13.436,13.436,0,0,0,1.5-.121v11.521a.5.5,0,1,0,1,0V714.5c.317-.061.653-.136,1-.225v11.908a.5.5,0,1,0,1,0V713.973a8.384,8.384,0,0,0,5.5-4.777,8.383,8.383,0,0,0,5.5,4.777v12.205a.5.5,0,1,0,1,0V714.27c.347.09.683.164,1,.225v11.682a.5.5,0,0,0,1,0V714.657a13.423,13.423,0,0,0,1.5.121.5.5,0,0,0,0-1Z" transform="translate(-813.733 -705.778)"/>
  <path id="Trazado_88" data-name="Trazado 88" d="M824.206,715.767l0,0a1.687,1.687,0,0,0,.835.477l.008-.011,0-.006v.02l-.014,0a1.674,1.674,0,0,0-.254.908v.026h.025a1.714,1.714,0,0,0,.864-.225.036.036,0,0,1,.054.023,1.739,1.739,0,0,0,.466.784l0,0,0,0a1.731,1.731,0,0,0,.466-.784.036.036,0,0,1,.054-.023,1.714,1.714,0,0,0,.864.225h.026v-.025a1.72,1.72,0,0,0-.224-.865.036.036,0,0,1,.023-.054,1.728,1.728,0,0,0,.784-.466l0,0,0,0a1.738,1.738,0,0,0-.784-.466.036.036,0,0,1-.023-.054,1.718,1.718,0,0,0,.224-.865v-.024h-.026a1.731,1.731,0,0,0-.864.225.036.036,0,0,1-.054-.023,1.725,1.725,0,0,0-.466-.783l0,0,0,0a1.733,1.733,0,0,0-.467.783.036.036,0,0,1-.054.023,1.731,1.731,0,0,0-.864-.225h-.025v.025a1.691,1.691,0,0,0,.243.893h0v.018a1.71,1.71,0,0,0-.825.474Z" transform="translate(-815.747 -707.314)"/>
  <path id="Trazado_89" data-name="Trazado 89" d="M829.661,720.635h-8a.5.5,0,1,0,0,1h8a.5.5,0,1,0,0-1Z" transform="translate(-815.161 -708.635)"/>
</svg>
