<svg id="Grupo_426" data-name="Grupo 426" xmlns="http://www.w3.org/2000/svg" width="20" height="18.518" viewBox="0 0 20 18.518">
  <path id="Trazado_101" data-name="Trazado 101" d="M873.927,718.564a3.707,3.707,0,0,0-3.7,3.7c0,1.777,2.577,5.6,3.094,6.346a.742.742,0,0,0,1.22,0c.516-.747,3.094-4.569,3.094-6.346A3.708,3.708,0,0,0,873.927,718.564Zm0,5.185a1.481,1.481,0,1,1,1.482-1.481A1.481,1.481,0,0,1,873.927,723.749Zm-2.183,5.185h-9.3a3.333,3.333,0,0,1,0-6.666h2.964a1.852,1.852,0,0,0,0-3.7h-2.635c.292-.441.609-.945.914-1.482h1.72a3.333,3.333,0,0,1,0,6.666h-2.964a1.852,1.852,0,0,0,0,3.7H870.8C871.124,727.988,871.446,728.49,871.745,728.934Zm-11.151-18.518a2.966,2.966,0,0,0-2.963,2.963c0,1.388,1.96,4.3,2.354,4.865a.742.742,0,0,0,1.219,0c.393-.568,2.353-3.477,2.353-4.865A2.965,2.965,0,0,0,860.594,710.416Zm.526,3.489a.739.739,0,0,1-1.207-.808.849.849,0,0,1,.156-.244.77.77,0,0,1,.245-.156.74.74,0,0,1,.807.156.869.869,0,0,1,.156.244A.735.735,0,0,1,861.12,713.905Z" transform="translate(-857.631 -710.416)"/>
</svg>
