<svg xmlns="http://www.w3.org/2000/svg" width="17.52" height="14.6" viewBox="0 0 17.52 14.6">
  <g id="Grupo_169" data-name="Grupo 169" transform="translate(-995.474 -711.789)">
    <path id="Trazado_115" data-name="Trazado 115" d="M1010.58,714.976h-6.82a.6.6,0,0,0-.6.6v3.1a.6.6,0,0,0,.6.6h6.82a.6.6,0,0,0,.6-.6v-3.1A.6.6,0,0,0,1010.58,714.976Zm-.6,3.12h-5.62v-1.92h5.62Z" transform="translate(-1.126 -0.467)"/>
    <path id="Trazado_116" data-name="Trazado 116" d="M1012.994,713.589a1.8,1.8,0,0,0-1.8-1.8h-10.3a1.8,1.8,0,0,0-1.8,1.8v1.18h-1.82a1.8,1.8,0,0,0-1.8,1.8h0v7.42a2.4,2.4,0,0,0,2.4,2.4h12.259a2.86,2.86,0,0,0,2.86-2.86h0Zm-13.9,10.4a1.21,1.21,0,1,1-2.42,0v-7.42a.6.6,0,0,1,.6-.6h1.82Zm12.72-.46a1.66,1.66,0,0,1-1.66,1.66h-10.2a2.406,2.406,0,0,0,.32-1.2v-10.4a.6.6,0,0,1,.6-.6h10.319a.6.6,0,0,1,.6.6Z"/>
    <path id="Trazado_117" data-name="Trazado 117" d="M1010.58,721.419h-6.82a.6.6,0,1,0,0,1.2h6.82a.6.6,0,0,0,0-1.2Z" transform="translate(-1.126 -1.41)"/>
    <path id="Trazado_118" data-name="Trazado 118" d="M1010.58,724.231h-6.82a.6.6,0,1,0,0,1.2h6.82a.6.6,0,1,0,0-1.2Z" transform="translate(-1.126 -1.822)"/>
  </g>
</svg>
