<svg xmlns="http://www.w3.org/2000/svg" width="19.332" height="21.6" viewBox="0 0 19.332 21.6">
  <g id="Grupo_194" data-name="Grupo 194" transform="translate(-1037.3 -704.33)" style="isolation: isolate">
    <path id="Trazado_408" data-name="Trazado 408" d="M1046.966,704.33a2.012,2.012,0,0,1,1.782.783,2.719,2.719,0,0,1,.54,1.539,2.544,2.544,0,0,1-.3,1.134q-.3.6-.648,1.485a20.154,20.154,0,0,0-.7,2.214,16.7,16.7,0,0,0-.459,3.321,13.684,13.684,0,0,0,2.808-2.268q1.024-1.134,1.728-2t1.242-1.4a1.9,1.9,0,0,1,1.4-.54,2.018,2.018,0,0,1,1.7.729,2.469,2.469,0,0,1,.568,1.539,2.073,2.073,0,0,1-.324,1.215,2.406,2.406,0,0,1-.81.729,2.211,2.211,0,0,1-1,.243,13.7,13.7,0,0,0-1.593.189,20.522,20.522,0,0,0-2.349.567,21.9,21.9,0,0,0-3.267,1.323,21.8,21.8,0,0,0,3.267,1.323,20.522,20.522,0,0,0,2.349.567,13.716,13.716,0,0,0,1.593.189,2.238,2.238,0,0,1,1,.243,2.437,2.437,0,0,1,.81.729,2.075,2.075,0,0,1,.324,1.215,2.47,2.47,0,0,1-.568,1.539,2.018,2.018,0,0,1-1.7.729,1.9,1.9,0,0,1-1.4-.54,18.475,18.475,0,0,1-1.242-1.4q-.7-.862-1.728-2a13.684,13.684,0,0,0-2.808-2.268,16.68,16.68,0,0,0,.459,3.321,16.5,16.5,0,0,0,.729,2.214q.376.891.675,1.485a2.556,2.556,0,0,1,.3,1.134,2.714,2.714,0,0,1-.54,1.539,2.42,2.42,0,0,1-3.565,0,2.713,2.713,0,0,1-.539-1.539,2.541,2.541,0,0,1,.3-1.134q.3-.594.648-1.485a20.735,20.735,0,0,0,.7-2.214,16.9,16.9,0,0,0,.459-3.321,13.687,13.687,0,0,0-2.808,2.268q-1.026,1.134-1.728,2a18.435,18.435,0,0,1-1.243,1.4,1.9,1.9,0,0,1-1.4.54,2.021,2.021,0,0,1-1.7-.729,2.468,2.468,0,0,1-.567-1.539,2.068,2.068,0,0,1,.324-1.215,2.444,2.444,0,0,1,.809-.729,2.172,2.172,0,0,1,.973-.243,13.808,13.808,0,0,0,1.565-.189,21.687,21.687,0,0,0,2.376-.567,21.146,21.146,0,0,0,3.294-1.323,23.863,23.863,0,0,0-3.32-1.323,20.483,20.483,0,0,0-2.35-.567,13.665,13.665,0,0,0-1.592-.189,2.2,2.2,0,0,1-1-.243,2.4,2.4,0,0,1-.81-.729,2.065,2.065,0,0,1-.324-1.215,2.469,2.469,0,0,1,.567-1.539,2.021,2.021,0,0,1,1.7-.729,1.9,1.9,0,0,1,1.405.54q.539.54,1.242,1.4t1.727,2a13.693,13.693,0,0,0,2.809,2.268,18.481,18.481,0,0,0-.433-3.321,14.778,14.778,0,0,0-.7-2.214c-.253-.594-.477-1.088-.676-1.485a2.529,2.529,0,0,1-.3-1.134,2.7,2.7,0,0,1,.54-1.539A2.01,2.01,0,0,1,1046.966,704.33Z" fill="#626262"/>
  </g>
</svg>
