<svg id="ICON_-_STORE" data-name="ICON - STORE" xmlns="http://www.w3.org/2000/svg" width="18" height="17.104" viewBox="0 0 18 17.104">
  <path id="Trazado_95" data-name="Trazado 95" d="M1072.48,712.825l-1.1-3.932a1.43,1.43,0,0,0-1.4-1.172h-12.919a1.427,1.427,0,0,0-1.4,1.172l-1.1,3.932a1.007,1.007,0,0,1-.023.115l-.023,2.184a1.624,1.624,0,0,0,1.31,1.586V723.4a1.433,1.433,0,0,0,1.426,1.426h12.529a1.433,1.433,0,0,0,1.425-1.426V716.71a1.623,1.623,0,0,0,1.31-1.586l-.023-2.184C1072.5,712.894,1072.48,712.847,1072.48,712.825Zm-2.713,11.057h-12.529a.486.486,0,0,1-.483-.483v-6.667h.46a1.144,1.144,0,0,0,.276-.023v5.471a.314.314,0,0,0,.322.322h11.333a.314.314,0,0,0,.322-.322V716.71a1.82,1.82,0,0,0,.345.046h.437v6.667A.466.466,0,0,1,1069.768,723.882Zm-11.632-7.4a2.406,2.406,0,0,0,.253-.207,1.651,1.651,0,0,0,1.173.483h1.058a1.664,1.664,0,0,1,2.344,0h1.057a1.664,1.664,0,0,1,2.344,0h1.057a1.65,1.65,0,0,0,1.173-.483,1.249,1.249,0,0,0,.206.161v5.448h-10.667Zm12.736-.667h-1.057a.672.672,0,0,1-.689-.667.485.485,0,0,0-.483-.482.471.471,0,0,0-.483.482.687.687,0,0,1-.689.667h-1.057a.673.673,0,0,1-.69-.667.485.485,0,0,0-.483-.482.471.471,0,0,0-.482.482.687.687,0,0,1-.69.667h-1.057a.672.672,0,0,1-.689-.667.485.485,0,0,0-.483-.482.471.471,0,0,0-.483.482.687.687,0,0,1-.689.667h-1.1a.673.673,0,0,1-.69-.667.485.485,0,0,0-.483-.482.471.471,0,0,0-.482.482.687.687,0,0,1-.69.667h-1.057a.672.672,0,0,1-.689-.667l.023-2.115,1.081-3.908v-.047a.467.467,0,0,1,.46-.391h12.919a.451.451,0,0,1,.46.391v.047l1.1,3.885.023,2.115A.658.658,0,0,1,1070.871,715.813Z" transform="translate(-1054.503 -707.721)"/>
  <path id="Trazado_96" data-name="Trazado 96" d="M1068.787,721.177a.412.412,0,0,0-.583.582l3.525,3.525a.443.443,0,0,0,.613,0,.424.424,0,0,0,0-.582Z" transform="translate(-1058.655 -711.841)"/>
  <path id="Trazado_97" data-name="Trazado 97" d="M1068.45,723.169a.412.412,0,0,0-.583.583l1.533,1.532a.443.443,0,0,0,.613,0,.426.426,0,0,0,0-.582Z" transform="translate(-1058.179 -711.995)"/>
  <path id="Trazado_98" data-name="Trazado 98" d="M1069.082,714.1h-11.29c-.163,0-.285.184-.285.43s.122.429.285.429h11.27c.163,0,.285-.184.285-.429S1069.224,714.1,1069.082,714.1Z" transform="translate(-1054.503 -709.377)"/>
</svg>
