<svg id="Page-1" xmlns="http://www.w3.org/2000/svg" width="10" height="10" viewBox="0 0 10 10">
  <g id="Core">
    <g id="language">
      <path id="Shape" d="M5,0a5,5,0,1,0,5,5A5.015,5.015,0,0,0,5,0ZM8.45,3H7a7.9,7.9,0,0,0-.7-1.8A4.024,4.024,0,0,1,8.45,3ZM5,1a6.714,6.714,0,0,1,.95,2H4.05A7.352,7.352,0,0,1,5,1ZM1.15,6A3.224,3.224,0,0,1,1,5a3.224,3.224,0,0,1,.15-1h1.7A6.7,6.7,0,0,0,2.8,5c0,.35.05.65.05,1Zm.4,1H3a7.9,7.9,0,0,0,.7,1.8A4.024,4.024,0,0,1,1.55,7ZM3,3H1.55A4.214,4.214,0,0,1,3.7,1.2,7.9,7.9,0,0,0,3,3ZM5,9a6.714,6.714,0,0,1-.95-2h1.9A7.352,7.352,0,0,1,5,9ZM6.15,6H3.85a6.776,6.776,0,0,1-.1-1,6.776,6.776,0,0,1,.1-1H6.2a6.776,6.776,0,0,1,.1,1,6.9,6.9,0,0,1-.15,1ZM6.3,8.8A7.094,7.094,0,0,0,7,7H8.45A4.024,4.024,0,0,1,6.3,8.8ZM7.2,6a6.7,6.7,0,0,0,.05-1c0-.35-.05-.65-.05-1H8.9a3.224,3.224,0,0,1,.15,1A3.224,3.224,0,0,1,8.9,6Z" fill="#626262" fill-rule="evenodd"/>
    </g>
  </g>
</svg>
