<svg xmlns="http://www.w3.org/2000/svg" width="16.849" height="20" viewBox="0 0 16.849 20">
  <path id="path4" d="M16.494,15.584a10.874,10.874,0,0,1-1.079,1.937,9.822,9.822,0,0,1-1.385,1.674,2.687,2.687,0,0,1-1.78.784,4.464,4.464,0,0,1-1.644-.393,4.717,4.717,0,0,0-1.769-.392,4.879,4.879,0,0,0-1.82.392A4.9,4.9,0,0,1,5.443,20a2.527,2.527,0,0,1-1.821-.805,10.315,10.315,0,0,1-1.449-1.734,11.988,11.988,0,0,1-1.53-3.043A11.144,11.144,0,0,1,0,10.791,6.623,6.623,0,0,1,.87,7.328,5.1,5.1,0,0,1,2.7,5.483a4.9,4.9,0,0,1,2.463-.695,5.8,5.8,0,0,1,1.9.443,6.123,6.123,0,0,0,1.511.444,9.041,9.041,0,0,0,1.675-.523,5.538,5.538,0,0,1,2.274-.4,4.835,4.835,0,0,1,3.786,1.991,4.212,4.212,0,0,0-2.235,3.828,4.223,4.223,0,0,0,1.387,3.182,4.556,4.556,0,0,0,1.386.909Q16.678,15.14,16.494,15.584ZM12.635.4a4.267,4.267,0,0,1-1.1,2.8,3.727,3.727,0,0,1-3.09,1.529,3.117,3.117,0,0,1-.022-.381A4.38,4.38,0,0,1,9.582,1.516,4.464,4.464,0,0,1,11,.458,4.212,4.212,0,0,1,12.613,0a3.633,3.633,0,0,1,.022.4Z" transform="translate(0.002)" fill="#fff"/>
</svg>
