<svg id="Glyphs_Arrow_1_-_Light" data-name="Glyphs/ Arrow 1 - Light" xmlns="http://www.w3.org/2000/svg" width="1024.65" height="10" viewBox="0 0 1027 10">
  <g id="Glyphs_Arrow_1_-_Light-2" data-name="Glyphs/ Arrow 1 - Light" transform="translate(864.65 10) rotate(180)">
    <path id="Combined_Shape" data-name="Combined Shape" d="M4.41,9.823.176,5.556A.606.606,0,0,1,.014,5a.606.606,0,0,1,.162-.556L4.41.176a.6.6,0,0,1,.848,0,.608.608,0,0,1,0,.853L1.916,4.4H1024.047a.6.6,0,0,1,0,1.207H1.917L5.258,8.969a.608.608,0,0,1,0,.853.6.6,0,0,1-.848,0Z" transform="translate(-160 0)" fill="#626262"/>
  </g>
</svg>
