<svg xmlns="http://www.w3.org/2000/svg" xmlns:xlink="http://www.w3.org/1999/xlink" width="281.87" height="119.034" viewBox="0 0 281.87 119.034">
  <defs>
    <clipPath id="clip-path">
      <path id="Path_921" data-name="Path 921" d="M1351.553,3165.431s46.3-53.568,5.381-81.21-64.479-10.312-64.479-10.312L1157.072,3052.2l-65.119,66.341,11.9,52.693,246.373-1.576" transform="translate(-1091.953 -3052.203)" fill="none"/>
    </clipPath>
  </defs>
  <g id="Group_569" data-name="Group 569" transform="translate(-1091.953 -3052.2)">
    <g id="Group_568" data-name="Group 568" transform="translate(1091.953 3052.203)">
      <g id="Group_566" data-name="Group 566">
        <g id="Group_565" data-name="Group 565" clip-path="url(#clip-path)">
          <g id="Group_564" data-name="Group 564" transform="translate(22.44 9.954)">
            <path id="Path_768" data-name="Path 768" d="M1443.19,3157.58c-.011.543-.032,1.074-.053,1.606s-.064,1.053-.1,1.574c-.085,1.117-.2,2.223-.351,3.3-.181,1.383-.4,2.744-.66,4.053-.075.372-.149.734-.223,1.1-.032.149-.064.287-.1.425l-.021.074q-.063.287-.128.575c-.032.181-.074.361-.117.532-.16.659-.33,1.308-.5,1.936-.01.053-.032.107-.042.159a1.767,1.767,0,0,1-.053.191c-.192.713-.394,1.394-.6,2.063-.276.9-.564,1.766-.851,2.606-.085.244-.17.49-.255.723-.128.351-.255.7-.372,1.043v.01c-.117.277-.213.532-.319.8-.16.425-.33.829-.489,1.233-.245.6-.489,1.17-.723,1.7-.053.128-.106.245-.16.362-.106.244-.212.479-.308.7-.213.468-.426.914-.628,1.329s-.393.809-.574,1.17c-.681,1.34-1.255,2.446-1.51,2.925-.085.17-.139.266-.139.266s-262.071.032-262.082.021c-6.924-15.477.926-27.3,17.349-40.676,12.3-10.03,35.134-13.5,29.177-34.676-7.031-24.965,26.188-33.134,59.343-25.338,25.933,6.1,49.8,27.731,67.778,20.476,34.836-14.062,51.536-7.8,61.183-3.744.309.128.617.255.915.394q2.122.925,4.276,2.1c.3.16.6.329.9.5,1,.564,2.01,1.17,3.021,1.819.468.308.936.617,1.415.936a.643.643,0,0,1,.106.074c.649.436,1.3.883,1.947,1.362.755.553,1.51,1.128,2.276,1.734q2.026,1.6,4.063,3.435c.521.469,1.032.947,1.553,1.437q.91.845,1.755,1.723c.521.542,1.032,1.085,1.521,1.627.17.181.341.372.511.563.415.469.808.947,1.2,1.415.361.436.7.883,1.042,1.32.128.17.255.34.383.5.2.277.4.542.6.819.415.585.819,1.159,1.191,1.745q.766,1.165,1.436,2.329c.064.106.128.213.191.33.053.1.106.192.16.287.149.266.3.543.447.809a48.628,48.628,0,0,1,2.564,5.669l.128.351c.074.192.138.383.2.575.127.351.244.7.362,1.053s.213.691.319,1.031c.011.042.032.1.042.138.085.287.159.563.245.851.138.51.277,1.021.394,1.532.191.808.362,1.606.51,2.414.011.074.032.16.042.234.139.777.255,1.542.362,2.309a53.468,53.468,0,0,1,.451,8.066Z" transform="translate(-1169.323 -3086.522)" fill="#edf4ff"/>
            <path id="Path_769" data-name="Path 769" d="M1212.886,3412.839a11.39,11.39,0,0,1,9.985-7.137c7.646-.442,11.9-6.381,19.8-4.992s8.495,7.222,11.822,8.832,20.07-2.088,26.422-.335,9.327-2.611,15.235-4.5,9.782.7,14.033,3.645,10.2-.332,9.938,4.348Z" transform="translate(-1200.251 -3309.436)" fill="#b8e0af"/>
            <rect id="Rectangle_102" data-name="Rectangle 102" width="73.151" height="55.269" transform="translate(41.278 42.036)" fill="#cbd9ef" opacity="0.4"/>
            <g id="Group_528" data-name="Group 528" transform="translate(53.994 37.254)">
              <path id="Path_770" data-name="Path 770" d="M1356.808,3214.969l-.013,1.859-.386,55.916c0,.135-.049.243-.108.243h-.029c-.116,0-.21-.212-.213-.478l-.535-53.974-.036-3.566Z" transform="translate(-1355.489 -3214.969)" fill="#f42834"/>
              <path id="Path_771" data-name="Path 771" d="M1356.808,3214.969l-.013,1.859a3.973,3.973,0,0,0-1.271,1.707l-.036-3.566Z" transform="translate(-1355.489 -3214.969)" fill="#bf253b"/>
            </g>
            <path id="Path_772" data-name="Path 772" d="M1384.8,3259.074v27.652h-73.151v-55.269h21.5C1339.734,3237.791,1362.866,3258.438,1384.8,3259.074Z" transform="translate(-1270.367 -3189.422)" fill="#c4d2e8" opacity="0.4"/>
            <path id="Path_773" data-name="Path 773" d="M1613.6,3422.278h-7.213c-.387-.327.268-1.072.951-1.122a4.218,4.218,0,0,1,1.1.13c.1-1.318.666-7.245,2.8-7.007,2.4.267,0,2.61-.679,4a32.966,32.966,0,0,0-1.276,3.2q.3.065.6.122c.318-.978,1.5-4.266,3.01-4.074,1.769.224,1.058,1.543-.2,2.325-.92.575-2.049,1.393-2.586,1.788a7.642,7.642,0,0,0,1.41.113,3.034,3.034,0,0,1,2.083.524Z" transform="translate(-1479.546 -3319.214)" fill="#b8e0af"/>
            <g id="Group_532" data-name="Group 532" transform="translate(44.117 83.73)">
              <g id="Group_531" data-name="Group 531" transform="translate(3.852 4.71)">
                <g id="Group_529" data-name="Group 529" transform="translate(58.571)">
                  <path id="Path_774" data-name="Path 774" d="M1537.959,3391.456l-.042,1.843-.291,12.847a.147.147,0,0,1-.147.144h0a.256.256,0,0,1-.256-.246l-.472-12.163-.094-2.424Z" transform="translate(-1536.657 -3391.456)" fill="#cc621b"/>
                  <path id="Path_775" data-name="Path 775" d="M1537.959,3391.456l-.042,1.843a4.19,4.19,0,0,0-1.167.581l-.094-2.424Z" transform="translate(-1536.657 -3391.456)" fill="#b25414"/>
                </g>
                <g id="Group_530" data-name="Group 530">
                  <path id="Path_776" data-name="Path 776" d="M1336.014,3391.456l-.042,1.843-.291,12.847a.147.147,0,0,1-.147.144h0a.256.256,0,0,1-.256-.246l-.472-12.163-.094-2.424Z" transform="translate(-1334.712 -3391.456)" fill="#cc621b"/>
                  <path id="Path_777" data-name="Path 777" d="M1336.014,3391.456l-.042,1.843a4.2,4.2,0,0,0-1.167.581l-.094-2.424Z" transform="translate(-1334.712 -3391.456)" fill="#b25414"/>
                </g>
              </g>
              <path id="Rectangle_103" data-name="Rectangle 103" d="M2.664,0H64.912a2.664,2.664,0,0,1,2.664,2.664h0a2.664,2.664,0,0,1-2.664,2.664H2.664A2.664,2.664,0,0,1,0,2.665H0A2.664,2.664,0,0,1,2.664,0Z" fill="#e58638"/>
            </g>
            <g id="Group_533" data-name="Group 533" transform="translate(130.847 32.98)">
              <path id="Path_778" data-name="Path 778" d="M2056.255,3371.51c-.034.191-.079.382-.124.562-.168.7-.348,1.381-.528,2.044-.011.055-.033.112-.045.168a1.992,1.992,0,0,1-.056.2c-.2.753-.415,1.471-.629,2.179-.292.955-.6,1.865-.9,2.751-.09.258-.179.517-.269.764-.135.371-.27.741-.394,1.1v.01c-.124.292-.224.562-.337.843-.169.449-.348.876-.517,1.3-.258.629-.516,1.235-.763,1.8-.056.134-.112.258-.168.382-.112.258-.225.5-.326.741h-15.947V3371.51Z" transform="translate(-1914.954 -3321.834)" fill="#bf253b"/>
              <rect id="Rectangle_104" data-name="Rectangle 104" width="29.565" height="14.843" transform="translate(37.342 49.673)" fill="#bf253b"/>
              <circle id="Ellipse_21" data-name="Ellipse 21" cx="8.762" cy="8.762" r="8.762" transform="translate(42.551 52.77)" fill="#233862"/>
              <path id="Path_779" data-name="Path 779" d="M1790.737,3401.139a4.572,4.572,0,1,1-1.339-3.261,4.6,4.6,0,0,1,1.339,3.261Z" transform="translate(-1734.827 -3339.606)" fill="#466aa5"/>
              <path id="Path_780" data-name="Path 780" d="M1775.428,3227.99c-.112-.809-.236-1.617-.382-2.437-.011-.079-.034-.169-.045-.248-.157-.853-.337-1.7-.539-2.549l-121.341-22.5c-.18,0-.371,0-.55.011-.034,0-.079.011-.113.011-.079,0-.146.011-.213.011h-.011a.307.307,0,0,1-.1.011c-.045.011-.09.011-.124.023a7.882,7.882,0,0,0-1.011.18l-.135.033a.04.04,0,0,1-.033.011c-.067.022-.135.033-.191.056l-.135.034-.2.067-.2.068a1.087,1.087,0,0,1-.112.044c-.067.022-.146.056-.224.09a1.206,1.206,0,0,0-.18.079,3.158,3.158,0,0,0-.292.124c-.056.033-.112.056-.18.089-.034.023-.078.034-.112.056-.078.045-.146.079-.213.112a1.641,1.641,0,0,0-.2.124,1.745,1.745,0,0,0-.191.113c-.011.011-.023.011-.033.022-.068.033-.124.079-.18.112a4.858,4.858,0,0,1-.336.237,1.091,1.091,0,0,1-.112.077c-.146.113-.292.236-.427.36a.672.672,0,0,0-.09.067c-.045.045-.09.079-.123.113s-.09.078-.135.123l-.247.247a1.34,1.34,0,0,0-.123.135,1.679,1.679,0,0,0-.146.146.67.67,0,0,1-.09.1c-.056.079-.112.146-.169.214-.033.033-.056.067-.09.1a1.044,1.044,0,0,1-.078.112c-.056.078-.112.146-.169.224a.982.982,0,0,0-.067.112.41.41,0,0,0-.078.112c-.045.056-.09.123-.135.191,0,.011,0,.011-.011.011-.011.033-.034.056-.045.09-.034.044-.056.089-.09.135a.518.518,0,0,0-.056.112.011.011,0,0,0-.011.011.433.433,0,0,1-.056.1c-.034.056-.067.124-.1.179-.034.079-.079.158-.113.236a1.524,1.524,0,0,0-.089.2c-.023.034-.034.068-.056.1a.341.341,0,0,1-.045.112c-.034.078-.056.146-.09.225a1.684,1.684,0,0,0-.079.213,1.284,1.284,0,0,0-.045.124.711.711,0,0,1-.034.1.663.663,0,0,1-.022.067c-.011.022-.023.079-.034.112-.022.056-.034.113-.056.168a.9.9,0,0,0-.034.135c-.012.045-.023.078-.033.124-.124.438-.236.887-.359,1.359l-.068.236q-.2.741-.4,1.516c-.034.1-.056.214-.09.326-.011.056-.022.1-.034.146-.045.157-.09.315-.123.471s-.09.326-.135.483a.3.3,0,0,1-.022.078,1.753,1.753,0,0,1-.056.236,1.375,1.375,0,0,0-.045.18c-.045.146-.079.281-.112.426-.056.191-.1.382-.157.573-.034.146-.079.3-.112.46-.124.461-.247.932-.371,1.4-.056.236-.112.46-.18.7s-.123.472-.179.707-.124.472-.18.708c-.056.213-.1.427-.157.64-.157.617-.314,1.235-.46,1.841-.056.236-.113.461-.169.686-.023.078-.034.157-.056.224-.056.236-.112.46-.168.685-.011.045-.011.078-.022.124l-.135.539c-.022.079-.034.157-.056.224-.045.2-.09.394-.135.584-.022.124-.056.236-.078.348-.056.2-.1.393-.146.6a.067.067,0,0,1-.011.045c-.022.112-.045.224-.067.325a.1.1,0,0,0-.011.057c-.022.089-.045.179-.067.269s-.045.213-.067.314c-.056.213-.1.416-.146.629-.011.045-.022.1-.034.157-.056.247-.113.5-.169.752a2.29,2.29,0,0,1-.056.27c0,.022-.011.045-.011.067-.023.078-.034.168-.056.247-.011.034-.011.067-.023.1-.022.124-.044.247-.078.371v.011c-.011.079-.034.146-.045.225-.045.236-.09.46-.135.685-.236,1.168-.416,2.19-.517,3.01a113.29,113.29,0,0,0-.82,13.173c-.011,1.909,0,3.784.034,5.57.011.809.034,1.595.056,2.358.067,2.179.157,4.189.247,5.941.056,1.022.123,1.943.169,2.763a4.247,4.247,0,0,0,4.234,3.964h31c-.011-.033-.011-.067-.023-.1a10.652,10.652,0,0,1-.382-2.886,10.917,10.917,0,0,1,21.832-.157,11.307,11.307,0,0,1-.382,3.043.336.336,0,0,0-.022.1h61.8a11.065,11.065,0,0,1,16.98-12.072c.011-.056.034-.113.045-.168.18-.663.36-1.348.528-2.044.045-.18.09-.371.124-.562s.09-.4.135-.606l.022-.079c.034-.146.068-.292.1-.449.079-.382.157-.764.236-1.157.269-1.381.505-2.818.7-4.278.157-1.134.281-2.3.371-3.481.033-.55.067-1.1.1-1.662s.045-1.123.056-1.7A56.5,56.5,0,0,0,1775.428,3227.99Z" transform="translate(-1632.869 -3200.246)" fill="#f42834"/>
              <path id="Path_781" data-name="Path 781" d="M1691.07,3381h-5.415a.991.991,0,0,1-.988-.988h0a.99.99,0,0,1,.988-.988h5.415a.99.99,0,0,1,.988.988h0A.991.991,0,0,1,1691.07,3381Z" transform="translate(-1666.049 -3327.171)" fill="#ffb93e"/>
              <path id="Path_782" data-name="Path 782" d="M1775.427,3295.293s-136.1-.407-136.157-.168c-.232.963-.41,1.8-.518,2.478a85.278,85.278,0,0,0-.809,13.877c.015,1.188.044,2.344.085,3.449h88.829v0h47.806c.269-1.381.505-2.819.7-4.279.157-1.134.281-2.3.371-3.481.033-.551.067-1.1.1-1.662s.045-1.123.056-1.7a56.46,56.46,0,0,0-.463-8.519Z" transform="translate(-1632.869 -3267.551)" fill="#f42834"/>
              <path id="Rectangle_105" data-name="Rectangle 105" d="M2.074,0h0A2.073,2.073,0,0,1,4.147,2.073V6.225A2.073,2.073,0,0,1,2.074,8.3h0A2.073,2.073,0,0,1,0,6.225V2.074A2.074,2.074,0,0,1,2.074,0Z" transform="translate(4.081 49.5)" fill="#ffb93e"/>
              <path id="Path_783" data-name="Path 783" d="M1763.03,3227.977c-.112-.809-.236-1.617-.382-2.437-.011-.078-.034-.169-.045-.247-.157-.853-.337-1.7-.539-2.549-.124-.539-.269-1.078-.416-1.617-.09-.3-.168-.6-.258-.9-.011-.044-.034-.1-.045-.146-.112-.359-.225-.73-.337-1.089s-.247-.741-.382-1.112c-.068-.2-.135-.4-.214-.606l-.135-.371a51.12,51.12,0,0,0-2.706-5.986c-.157-.281-.314-.573-.472-.854l-.168-.3c-.067-.124-.135-.236-.2-.349q-.708-1.229-1.516-2.459c-.393-.618-.82-1.224-1.258-1.842-.2-.292-.415-.572-.629-.865-.135-.168-.27-.348-.4-.528-.359-.46-.719-.932-1.1-1.392-.416-.494-.831-1-1.269-1.494l-.539-.6h-109.3c-.182,0-.365,0-.545.017l-.12.008c-.068,0-.137.01-.206.018h-.018l-.1.01h0l-.121.015a8.844,8.844,0,0,0-1,.184l-.141.036-.036.009-.19.053-.129.038-.2.065c-.068.022-.135.046-.2.071-.036.012-.073.025-.109.04-.074.028-.149.056-.223.087s-.126.051-.188.078q-.145.062-.287.13c-.06.027-.12.057-.179.087l-.119.061c-.07.036-.14.073-.209.113s-.138.077-.206.117h0l-.185.112-.041.026c-.059.036-.118.074-.176.114s-.113.075-.168.115l-.165.118-.108.081c-.15.113-.3.229-.437.352-.029.024-.057.05-.086.076l-.127.114c-.042.038-.084.076-.125.116-.086.082-.171.165-.253.25l-.128.135-.135.149-.089.1q-.091.1-.174.208c-.029.035-.057.07-.085.106l-.083.107c-.055.073-.11.147-.163.222-.026.037-.052.073-.077.111s-.052.074-.077.112a16.062,16.062,0,0,0-2.7.315c-3.569.743-5.824,2.713-6.546,5.706l-.434-.042a1.13,1.13,0,0,0-1.217.91l-1.91,9.863a1.13,1.13,0,0,0,1,1.339l2.752.263a1.13,1.13,0,0,0,1.232-1.017l.95-9.955a1.128,1.128,0,0,0-.947-1.221,6.569,6.569,0,0,1,5.433-5.4,10.156,10.156,0,0,1,2.044-.209h0c-.02.034-.039.068-.057.1-.034.061-.067.123-.1.184s-.079.153-.116.23-.063.133-.094.2c-.017.037-.033.073-.049.11s-.032.073-.048.111c-.031.074-.062.148-.091.223s-.053.139-.079.209c-.015.043-.031.085-.044.127s-.024.068-.035.1l-.021.062-.037.115c-.017.056-.033.11-.049.167s-.027.094-.04.142-.021.078-.031.118q-.179.659-.365,1.359l-.063.233q-.2.739-.4,1.514l-.089.336c-.008.03-.017.059-.024.089-.022.083-.043.166-.066.249s-.048.184-.072.276c-.042.159-.084.319-.127.479l-.02.075c-.025.094-.051.189-.074.284-.012.046-.025.091-.036.137q-.055.21-.111.423a.012.012,0,0,1,0,.006c-.05.189-.1.38-.149.571h39.684v14.992Z" transform="translate(-1620.471 -3200.234)" fill="#94a0a2"/>
              <path id="Path_784" data-name="Path 784" d="M1778.709,3244.428c-.112-.808-.236-1.617-.382-2.437-.011-.079-.034-.168-.045-.248-.157-.853-.337-1.7-.539-2.549-.124-.539-.269-1.078-.416-1.617-.09-.3-.168-.6-.258-.9-.011-.044-.033-.1-.045-.146-.112-.359-.225-.73-.337-1.089s-.247-.741-.382-1.111c-.068-.2-.135-.4-.214-.606l-.135-.371a51.067,51.067,0,0,0-2.706-5.985c-.157-.281-.314-.573-.471-.854l-.169-.3c-.067-.124-.135-.236-.2-.348q-.708-1.23-1.516-2.459h-123.15c-.124.438-.236.887-.359,1.359l-.068.236q-.2.741-.4,1.516c-.034.1-.056.213-.09.326-.011.056-.022.1-.033.146-.045.157-.09.314-.124.472s-.09.326-.135.482a.284.284,0,0,1-.023.079,1.837,1.837,0,0,1-.056.237,1.424,1.424,0,0,0-.045.179c-.045.146-.078.281-.112.426-.056.191-.1.382-.157.573-.034.146-.078.3-.112.46-.124.46-.247.932-.371,1.4-.056.235-.113.46-.18.7s-.123.473-.18.708-.124.471-.18.707c-.056.214-.1.427-.157.64-.157.618-.314,1.235-.46,1.842-.056.236-.112.46-.169.685-.023.079-.034.157-.056.225-.056.235-.112.46-.168.684-.011.045-.011.079-.022.124l-.135.539c-.022.079-.034.157-.056.225-.045.2-.09.393-.135.584-.022.124-.056.235-.079.348-.056.2-.1.393-.146.6a.069.069,0,0,1-.011.045c-.022.112-.045.225-.068.326a.1.1,0,0,0-.011.056l-.067.27c-.022.1-.045.214-.068.314-.056.214-.1.416-.146.629-.011.045-.022.1-.034.157-.056.248-.113.5-.169.753a2.261,2.261,0,0,1-.056.27c0,.022-.011.045-.011.067-.023.078-.034.168-.056.247-.011.034-.011.067-.023.1-.022.124-.045.247-.079.371v.011c-.011.078-.033.146-.045.225-.045.236-.09.46-.135.685l3.3.012h1.247l6.805.011,8.411.011h1.5l49.513.09a.389.389,0,0,0-.045-.124Z" transform="translate(-1636.151 -3216.685)" fill="#fff"/>
              <path id="Path_785" data-name="Path 785" d="M1670.351,3236.279a1.674,1.674,0,0,0-1.671-1.778h-7.648c-4.923,0-8.313,3.9-8.913,8.914l-1.775,21.779a1.28,1.28,0,0,0,1.276,1.385h15.68a1.251,1.251,0,0,0,1.248-1.174Z" transform="translate(-1641.676 -3224.563)" fill="#38568a"/>
              <path id="Path_786" data-name="Path 786" d="M1672.321,3241.562l-1.308,19.158-.458,6.7a1.561,1.561,0,0,1-1.561,1.561h-12.215c-2.146,0-1.507-3.182-1.335-5.19l1.35-15.745a8.525,8.525,0,0,1,.047-.9,7.718,7.718,0,0,1,7.454-7.156h4.579C1669.8,3239.993,1672.321,3239.993,1672.321,3241.562Z" transform="translate(-1645.142 -3228.461)" fill="#466aa5"/>
              <path id="Path_787" data-name="Path 787" d="M1797.985,3401.139a4.576,4.576,0,0,1-.9,2.733c-5.1-1.407-5.442-5.272-5.311-7.038a4.6,4.6,0,0,1,6.212,4.3Z" transform="translate(-1742.075 -3339.606)" fill="#5f87c1"/>
              <path id="Path_788" data-name="Path 788" d="M2067.629,3384.252c-.292.955-.6,1.864-.9,2.751-.09.258-.179.517-.269.764-.135.371-.27.741-.394,1.1v.011c-.124.292-.225.561-.337.843-.168.449-.348.876-.516,1.3-.258.629-.517,1.236-.764,1.8-.056.135-.112.258-.169.382-.112.258-.224.5-.325.741-.225.494-.449.966-.662,1.4s-.416.854-.607,1.236c-.719,1.415-1.325,2.583-1.595,3.088a8.76,8.76,0,1,1,6.536-15.419Z" transform="translate(-1927.71 -3329.422)" fill="#233862"/>
              <path id="Path_789" data-name="Path 789" d="M2076.267,3399.039v.011c-.123.292-.225.562-.337.843-.168.449-.348.876-.516,1.3-.258.629-.516,1.236-.764,1.8-.056.135-.112.258-.168.382-.112.258-.225.5-.326.741-.224.494-.449.966-.662,1.4a4.231,4.231,0,0,1-1.314.2,4.6,4.6,0,0,1-1.617-8.9,4.8,4.8,0,0,1,1.617-.292,4.572,4.572,0,0,1,4.087,2.52Z" transform="translate(-1937.908 -3339.593)" fill="#466aa5"/>
              <path id="Path_790" data-name="Path 790" d="M2083.5,3399.039v.011c-.123.292-.225.562-.337.843-.168.449-.348.876-.516,1.3-.258.629-.517,1.236-.763,1.8-.056.135-.113.258-.169.382a6.328,6.328,0,0,1-3.919-6.558,4.789,4.789,0,0,1,1.617-.292A4.572,4.572,0,0,1,2083.5,3399.039Z" transform="translate(-1945.146 -3339.593)" fill="#5f87c1"/>
              <path id="Path_791" data-name="Path 791" d="M1671.013,3278.234l-.458,6.7a1.561,1.561,0,0,1-1.561,1.562h-12.215c-2.146,0-1.507-3.182-1.335-5.191l1.35-15.745a8.555,8.555,0,0,1,.047-.9C1658.97,3269.625,1663.234,3276.425,1671.013,3278.234Z" transform="translate(-1645.142 -3245.977)" fill="#3f6098"/>
              <rect id="Rectangle_106" data-name="Rectangle 106" width="97.672" height="15.522" rx="7.761" transform="translate(31.916 9.533)" fill="#466aa5"/>
              <path id="Path_792" data-name="Path 792" d="M2086.731,3246.068c.2.854.382,1.7.539,2.549h-7.749a1.754,1.754,0,0,1-1.752-1.752v-12.028a1.753,1.753,0,0,1,1.752-1.751h2.077l.169.3c.157.281.314.573.471.854a51.125,51.125,0,0,1,2.706,5.985l.135.371c.079.2.146.4.213.607.135.37.258.741.382,1.111s.225.73.337,1.089c.011.045.034.1.045.146.09.3.168.6.258.9C2086.461,3244.99,2086.607,3245.529,2086.731,3246.068Z" transform="translate(-1945.138 -3223.558)" fill="#466aa5"/>
            </g>
            <g id="Group_542" data-name="Group 542" transform="translate(67.937 51.218)">
              <path id="Path_793" data-name="Path 793" d="M1431.141,3269.219c-.425-.645-2.111-.284-3.767.806s-2.653,2.5-2.228,3.142,2.111.284,3.767-.807S1431.566,3269.864,1431.141,3269.219Z" transform="translate(-1418.817 -3267.222)" fill="#233862"/>
              <g id="Group_534" data-name="Group 534" transform="translate(3.675 10.088)">
                <path id="Path_794" data-name="Path 794" d="M1416.235,3313.773l.327.02a63.7,63.7,0,0,1,.627-8.015,22.708,22.708,0,0,1,3.393-7.69l-.585-.188a18.987,18.987,0,0,0-1.145,2.066,21.232,21.232,0,0,0-2,5.6C1416.431,3307.9,1416.223,3313.743,1416.235,3313.773Z" transform="translate(-1416.234 -3297.901)" fill="#233862"/>
              </g>
              <path id="Path_795" data-name="Path 795" d="M1421.67,3269.7a3.063,3.063,0,0,0-3.161,1.282c-1.026,1.737-1.083,4.757-1.766,5.744s-1.889,5.155-.608,6.087,9.178-.034,9.622-.459-.027-4.8-.8-6.07S1426.066,3269.049,1421.67,3269.7Z" transform="translate(-1412.087 -3267.749)" fill="#a53d38"/>
              <path id="Path_796" data-name="Path 796" d="M1419.3,3302.693c-1.506-4.814.192-7.668.029-10.077-.122-1.8.227-1.849-.086-2.344s-2.075-.818-2.236-.832c-.125-.066-.155-.628-.154-1.181,0-.663.052-1.367.052-1.367l-2.237-.443-.133-.026a4.285,4.285,0,0,1-.7,2.816,10.75,10.75,0,0,0-2.206.439,1.034,1.034,0,0,0-.562.373,35,35,0,0,0-1.658,6.451,22.639,22.639,0,0,1-.519,2.359c-.266.558-1.081,3.628-1.777,5.143l.768.03s3.054-4.156,3.321-5.292c.084-.359.288-1.068.528-1.869a8.833,8.833,0,0,1,.788,2.63c-.017.732-.514,1.391-1.553,3.72C1410.387,3304.509,1420.834,3307.609,1419.3,3302.693Z" transform="translate(-1406.081 -3279.663)" fill="#ffb27d"/>
              <path id="Path_797" data-name="Path 797" d="M1427.792,3368.2c.147.585.309,1.143.474,1.662.035.112.07.22.1.327.018.053.036.106.053.158l.1.3c.045.128.089.253.133.374l.1.264c.49,1.314.9,2.147.9,2.147l.977-.067a26.6,26.6,0,0,1-.44-4.243c0-.089-.005-.178-.007-.27,0-.194-.006-.391-.006-.593v-.251a22.434,22.434,0,0,1,1.136-7.124,46.384,46.384,0,0,0,1.555-5.491,34.021,34.021,0,0,0,.895-8.928l-5.495.643-.256.03c-.023,2.524-.088,5.95-.145,8.629-.01.465-.019.908-.028,1.319-.038,1.72-.067,2.9-.067,2.9C1426.723,3362.263,1427.106,3365.474,1427.792,3368.2Z" transform="translate(-1420.29 -3322.296)" fill="#ffb27d"/>
              <path id="Path_798" data-name="Path 798" d="M1435.4,3286.955s-.051.7-.052,1.367a2.654,2.654,0,0,1-2.184-1.81Z" transform="translate(-1424.577 -3279.727)" fill="#ef9e67"/>
              <path id="Path_799" data-name="Path 799" d="M1448.761,3335.137s-.26,3.633-.174,4.066-.028,1.981-.622,2.266S1446.2,3334.275,1448.761,3335.137Z" transform="translate(-1434.526 -3314.2)" fill="#ffb27d"/>
              <path id="Path_800" data-name="Path 800" d="M1434.98,3277.972s-2.961.049-2.963-1.8-.385-3.08,1.5-3.19,2.259.595,2.409,1.21S1435.75,3277.912,1434.98,3277.972Z" transform="translate(-1423.74 -3270.116)" fill="#ffb27d"/>
              <path id="Path_801" data-name="Path 801" d="M1432.539,3271.941s-.811,2.164-2.055,2.484a2.449,2.449,0,0,1-1.784-.014,3.52,3.52,0,0,0,1.153-2.081S1431.928,3270.91,1432.539,3271.941Z" transform="translate(-1421.409 -3269.115)" fill="#a53d38"/>
              <path id="Path_802" data-name="Path 802" d="M1441.244,3272.6a2.614,2.614,0,0,1,.753.953c.148.47.214,1.437.5,1.4,0,0,.611-1.471-.076-2.3C1441.689,3271.772,1441.244,3272.6,1441.244,3272.6Z" transform="translate(-1430.315 -3269.6)" fill="#a53d38"/>
              <path id="Path_803" data-name="Path 803" d="M1446.111,3299.894s2.248,9.581,1.554,10.394a3.294,3.294,0,0,1-2.735.769C1444.669,3310.884,1446.111,3299.894,1446.111,3299.894Z" transform="translate(-1432.91 -3289.228)" fill="#ffa412"/>
              <path id="Path_804" data-name="Path 804" d="M1436.375,3272.274s-.578,2.266-2.148,2.992a5.423,5.423,0,0,0,1.7-2.888C1436.064,3270.882,1436.375,3272.274,1436.375,3272.274Z" transform="translate(-1425.333 -3269.2)" fill="#a53d38"/>
              <path id="Path_805" data-name="Path 805" d="M1418.368,3364.9a13.533,13.533,0,0,0,1.707,5.552l.475.432s.433-2.469.745-5.295c.3-2.687.706-5.529,1.167-6.4a23.979,23.979,0,0,0,1.565-6.749c.6-4.635.82-9.682.82-9.682l-5.571-.276a9.542,9.542,0,0,0-.863,4.244,42.81,42.81,0,0,0,.286,5.788c.282,2.6.674,4.774.765,5.261h0a.293.293,0,0,1-.037.187A12.782,12.782,0,0,0,1418.368,3364.9Z" transform="translate(-1414.018 -3319.464)" fill="#ffb27d"/>
              <path id="Path_806" data-name="Path 806" d="M1418.011,3356.409c-4.8,1.8-12.018-.285-12.018-.285s.266-1.492.656-3.658c.981-5.439,2.747-15.133,3.058-16.161.434-1.436,2.012-4.788,2.012-4.788a9.267,9.267,0,0,0,2.236.43,13.746,13.746,0,0,0,3.917-.294s.294.986.923,3.044S1418.011,3356.409,1418.011,3356.409Z" transform="translate(-1405.288 -3311.68)" fill="#bc3f3f"/>
              <path id="Path_807" data-name="Path 807" d="M1418.771,3302.3c-.24,2.369-.9,5.583-.9,5.583a5.318,5.318,0,0,1-1.1.433,7.93,7.93,0,0,1-5.05-.567,1.621,1.621,0,0,0-.01-.162c-.01-.089-.013-.156-.021-.216-.019-.134-.623-1.573-.623-1.573s-.023.112-.063.3c-.221,1.051-.979,4.506-1.444,4.817a3.156,3.156,0,0,1-1.94-.038c-.842-.229-1.626-.7-1.626-1.467,0-.981,1.784-5.417,3.069-8.456h0c.684-1.62,1.082-2.748,1.6-2.874,0,0,3.52,1.433,5.471,1.213a12.293,12.293,0,0,0,2.276-.782.372.372,0,0,1,.031.036.325.325,0,0,1,.022.028l.021.031a2.785,2.785,0,0,1,.255,1.386,12.174,12.174,0,0,1,.027,2.308Z" transform="translate(-1405.289 -3287.941)" fill="#ffb93e"/>
              <path id="Path_808" data-name="Path 808" d="M1423.485,3314.657s.6,1.442.623,1.577c.009.06.016.143.021.216a2.978,2.978,0,0,0,1.006.529c1.022.31,1.467-1.65,1.406-2.628s-1.507-3.769-1.989-3.827S1423.485,3314.657,1423.485,3314.657Z" transform="translate(-1417.707 -3296.775)" fill="#ffa412"/>
              <path id="Path_809" data-name="Path 809" d="M1423.27,3325.079c.04-.192.062-.3.062-.3A1.552,1.552,0,0,0,1423.27,3325.079Z" transform="translate(-1417.554 -3306.893)" fill="#e58638"/>
              <g id="Group_535" data-name="Group 535" transform="translate(6.324 19.152)">
                <path id="Path_810" data-name="Path 810" d="M1428.98,3330.6a4.63,4.63,0,0,0,2.664-.568l.121-.879c-.018.014-2.522,1.517-6.4.077l.082.666a9.714,9.714,0,0,0,3.533.7Z" transform="translate(-1425.366 -3329.152)" fill="#a53232"/>
              </g>
              <path id="Path_811" data-name="Path 811" d="M1405.994,3316.517c0,.769.784,1.241,1.626,1.471-1.16-1.382,1.378-9.74,1.443-9.953C1407.778,3311.083,1405.994,3315.533,1405.994,3316.517Z" transform="translate(-1405.289 -3295.007)" fill="#ffa412"/>
              <g id="Group_536" data-name="Group 536" transform="translate(8.299 49.701)">
                <path id="Path_812" data-name="Path 812" d="M1432.684,3436.74h.623c.209-.033.363-.093.577-.121a.577.577,0,0,1,.5.121l.006.007h2.649c.067-.1,0-.316-.06-.478a.376.376,0,0,0-.248-.227,2.857,2.857,0,0,1-1.342-.613c-.285-.258-1.377-.948-1.377-.948h-.006c-.024,0-.138.036-.635.455-.257.217-.695-.3-.695-.3a.617.617,0,0,0-.144.2.658.658,0,0,0-.057.406,2.638,2.638,0,0,1-.19.982c-.062.182-.114.311-.114.311S1432.148,3436.673,1432.684,3436.74Z" transform="translate(-1432.177 -3434.48)" fill="#233862"/>
                <path id="Path_813" data-name="Path 813" d="M1433.421,3434.824a1.973,1.973,0,0,0,.671.338c.281.037.807-.681.807-.681h-.006c-.024,0-.138.036-.635.455-.257.217-.694-.3-.694-.3a.623.623,0,0,0-.143.193Z" transform="translate(-1433.06 -3434.48)" fill="#466aa5"/>
                <path id="Path_814" data-name="Path 814" d="M1432.684,3440.981h.623c.209-.033.363-.093.577-.121a.578.578,0,0,1,.5.121l.006.006h2.649c.067-.095,0-.316-.06-.478-.081-.071-.1.311-.148.372a11.814,11.814,0,0,1-2.283-.066,1.276,1.276,0,0,0-1-.124,2.4,2.4,0,0,1-1.262-.238c-.062.182-.114.311-.114.311S1432.148,3440.915,1432.684,3440.981Z" transform="translate(-1432.177 -3438.721)" fill="#466aa5"/>
              </g>
              <g id="Group_537" data-name="Group 537" transform="translate(4.972 49.701)">
                <path id="Path_815" data-name="Path 815" d="M1421.214,3436.74h.624c.209-.033.363-.093.577-.121a.577.577,0,0,1,.5.121l.006.007h2.649c.066-.1,0-.316-.06-.478a.376.376,0,0,0-.248-.227,2.855,2.855,0,0,1-1.341-.613c-.285-.258-1.378-.948-1.378-.948h-.006c-.024,0-.138.036-.635.455-.257.217-.694-.3-.694-.3a.622.622,0,0,0-.144.2.656.656,0,0,0-.057.406,2.643,2.643,0,0,1-.19.982c-.062.182-.114.311-.114.311S1420.677,3436.673,1421.214,3436.74Z" transform="translate(-1420.707 -3434.48)" fill="#233862"/>
                <path id="Path_816" data-name="Path 816" d="M1421.95,3434.824a1.969,1.969,0,0,0,.672.338c.281.037.807-.681.807-.681h-.006c-.024,0-.138.036-.635.455-.257.217-.694-.3-.694-.3a.631.631,0,0,0-.144.193Z" transform="translate(-1421.589 -3434.48)" fill="#466aa5"/>
                <path id="Path_817" data-name="Path 817" d="M1421.214,3440.981h.624c.209-.033.363-.093.577-.121a.577.577,0,0,1,.5.121l.006.006h2.649c.066-.095,0-.316-.06-.478-.081-.071-.1.311-.148.372a11.8,11.8,0,0,1-2.282-.067,1.276,1.276,0,0,0-1-.123,2.406,2.406,0,0,1-1.263-.238c-.062.182-.114.311-.114.311S1420.677,3440.915,1421.214,3440.981Z" transform="translate(-1420.707 -3438.721)" fill="#466aa5"/>
              </g>
              <path id="Path_818" data-name="Path 818" d="M1408.256,3352.466c.981-5.439,2.747-15.133,3.058-16.161.434-1.436,2.012-4.788,2.012-4.788a9.255,9.255,0,0,0,2.236.43C1415.647,3333.121,1416.264,3344.844,1408.256,3352.466Z" transform="translate(-1406.895 -3311.68)" fill="#a53232"/>
              <g id="Group_538" data-name="Group 538" transform="translate(6.633 9.616)">
                <path id="Path_819" data-name="Path 819" d="M1428.639,3312.642l-.327-.024a64.834,64.834,0,0,0,.453-8.095,23.047,23.047,0,0,0-2.332-8.144l.6-.108a19.358,19.358,0,0,1,.857,2.22,21.547,21.547,0,0,1,1.231,5.868A82.559,82.559,0,0,1,1428.639,3312.642Z" transform="translate(-1426.433 -3296.271)" fill="#233862"/>
              </g>
              <g id="Group_541" data-name="Group 541" transform="translate(2.358 23.111)">
                <path id="Path_820" data-name="Path 820" d="M1420.4,3346s.317-.781.821-.976l2.575.486a2.7,2.7,0,0,0-.7,1Z" transform="translate(-1417.875 -3344.382)" fill="#d2e4ff"/>
                <rect id="Rectangle_107" data-name="Rectangle 107" width="3.731" height="5.241" rx="1.314" transform="translate(0.982 5.128) rotate(-79.327)" fill="#233862"/>
                <g id="Group_539" data-name="Group 539" transform="translate(1.924)">
                  <rect id="Rectangle_108" data-name="Rectangle 108" width="2.105" height="2.698" transform="translate(0.144 0.001) rotate(0.502)" fill="#e58638"/>
                  <rect id="Rectangle_109" data-name="Rectangle 109" width="2.105" height="2.698" transform="translate(0.024) rotate(0.502)" fill="#ee9849"/>
                </g>
                <g id="Group_540" data-name="Group 540" transform="translate(1.835 0.208)">
                  <rect id="Rectangle_110" data-name="Rectangle 110" width="2.105" height="2.698" transform="matrix(0.794, 0.608, -0.608, 0.794, 1.827, 0.143)" fill="#578e9b"/>
                  <rect id="Rectangle_111" data-name="Rectangle 111" width="2.105" height="2.698" transform="matrix(0.794, 0.608, -0.608, 0.794, 1.64, 0)" fill="#74acbe"/>
                </g>
                <rect id="Rectangle_112" data-name="Rectangle 112" width="3.732" height="5.241" rx="1.642" transform="translate(0 4.943) rotate(-79.327)" fill="#2b478b"/>
              </g>
              <path id="Path_821" data-name="Path 821" d="M1423.261,3267.461s-1.347-2.682.535-3.742,3.261-.644,4.3.653Z" transform="translate(-1417.217 -3263.117)" fill="#233862"/>
              <path id="Path_822" data-name="Path 822" d="M1428.706,3265.414c-.388-.621-1.744-.521-3.38.149a13.484,13.484,0,0,0-2,1.037,12.932,12.932,0,0,0-2.172,1.679c-1.083,1.059-1.612,2.074-1.261,2.636a.8.8,0,0,0,.51.347c.24-.516.928-1,1.124-1.4a6.145,6.145,0,0,1,2.248-2.4,6.278,6.278,0,0,1,2.625-1.014c.39-.025.678.056.8.259a.677.677,0,0,1-.014.62,3.055,3.055,0,0,1,.293.688C1428.54,3266.969,1429.054,3265.97,1428.706,3265.414Z" transform="translate(-1415.077 -3264.454)" fill="#2b478b"/>
              <path id="Path_823" data-name="Path 823" d="M1404.591,3347.04s-.73.747-.846.833a1.428,1.428,0,0,0-.145.94c.21.164.363-.215.695-.4s.521-.452.521-.365-.42.419-.369.492.622-.325.752-.413.159-1.056.159-1.056Z" transform="translate(-1403.563 -3322.7)" fill="#ffb27d"/>
            </g>
            <g id="Group_551" data-name="Group 551" transform="translate(46.68 52.976)">
              <path id="Path_824" data-name="Path 824" d="M1370.527,3273.553l.176-.012.215-.691c.825-2.046.087-2.792-.425-3.138a3.2,3.2,0,0,0-1.328-.5,2.622,2.622,0,0,0-.99.029h0c-3.082-.635-3.376,5.046-2.918,5.393a3.235,3.235,0,0,0,1.569.306.923.923,0,0,1-.127-.194c.336.275,1.329.178,1.329.178a1.614,1.614,0,0,1-.5-1.156l.8-.056a3.152,3.152,0,0,0,.81,1.254,2.808,2.808,0,0,0,1.6.3.692.692,0,0,1-.088-.222c.038.107.232.181.232.181a1.394,1.394,0,0,0,.406-.135S1370.658,3275.085,1370.527,3273.553Z" transform="translate(-1354.986 -3269.177)" fill="#233862"/>
              <path id="Path_825" data-name="Path 825" d="M1383.769,3308.11c2.417-.615,5.075-4.366,5.075-4.366l-.681-.59a17.786,17.786,0,0,1-3.635,2.262,20.326,20.326,0,0,0-.052-2.085c-.325-4.29-1.942-5.719-2.384-6.032a.979.979,0,0,0-.112-.073v.09c-.007.127-.018.384-.03.736C1381.856,3300.678,1381.749,3308.624,1383.769,3308.11Z" transform="translate(-1366.931 -3289.091)" fill="#ffb27d"/>
              <path id="Path_826" data-name="Path 826" d="M1403.476,3311.571c.01-.1.078-1.575.371-1.856a2.424,2.424,0,0,1,1.037-.632,1.656,1.656,0,0,1,.464,1.615,5.515,5.515,0,0,1-1.192,1.463Z" transform="translate(-1382.244 -3297.508)" fill="#ffb27d"/>
              <g id="Group_543" data-name="Group 543" transform="translate(20.536 11.004)">
                <rect id="Rectangle_113" data-name="Rectangle 113" width="3.23" height="1.785" rx="0.33" transform="matrix(0.042, -0.999, 0.999, 0.042, 0, 3.227)" fill="#f1a34f"/>
                <path id="Rectangle_114" data-name="Rectangle 114" d="M.893,0h0a.892.892,0,0,1,.892.892V2.337a.892.892,0,0,1-.892.892h0A.892.892,0,0,1,0,2.338V.893A.893.893,0,0,1,.893,0Z" transform="translate(2.123 3.316) rotate(-177.606)" fill="#d86713"/>
              </g>
              <path id="Path_827" data-name="Path 827" d="M1406.194,3308.856s-.434-.485-.868-.115.029,1.161.405,1.377a3.033,3.033,0,0,1,.5.329Z" transform="translate(-1383.433 -3297.167)" fill="#ffb27d"/>
              <path id="Path_828" data-name="Path 828" d="M1368.543,3367.551c.147.585.309,1.143.474,1.662.036.111.071.221.106.327l.053.158q.052.154.1.3.067.193.133.375c.032.09.065.177.1.264.49,1.314.9,2.148.9,2.148l.977-.068a26.528,26.528,0,0,1-.44-4.243c0-.089,0-.179-.007-.27,0-.194-.006-.391-.006-.593v-.25a22.438,22.438,0,0,1,1.136-7.124,46.459,46.459,0,0,0,1.555-5.49,34.034,34.034,0,0,0,.895-8.928l-5.495.643-.256.03c-.023,2.524-.088,5.95-.145,8.629-.009.465-.019.908-.028,1.319-.038,1.72-.066,2.9-.066,2.9C1367.473,3361.612,1367.857,3364.823,1368.543,3367.551Z" transform="translate(-1356.968 -3323.591)" fill="#cb7d45"/>
              <path id="Path_829" data-name="Path 829" d="M1361.082,3302.57c1.039-2.329,1.535-2.987,1.552-3.72a9.389,9.389,0,0,0-.827-2.738,5.74,5.74,0,0,1-.276-1.108c-.439-2.955,1.27-6.15,2.332-6.368.3-.078.8-1.146.79-2.866l.133.027,2.236.443s-.051.7-.052,1.367c0,.552.028,1.115.154,1.18.161.015.307.044.307.044a4.96,4.96,0,0,1,2.015,3.132c.163,2.409-1.535,5.263-.029,10.077C1370.956,3306.957,1360.508,3303.856,1361.082,3302.57Z" transform="translate(-1352.13 -3280.957)" fill="#ffb27d"/>
              <path id="Path_830" data-name="Path 830" d="M1376.149,3286.3s-.051.7-.052,1.367a2.652,2.652,0,0,1-2.184-1.81Z" transform="translate(-1361.255 -3281.022)" fill="#ef9e67"/>
              <path id="Path_831" data-name="Path 831" d="M1375.73,3277.321s-2.961.049-2.964-1.8-.385-3.081,1.505-3.19,2.259.594,2.409,1.21S1376.5,3277.26,1375.73,3277.321Z" transform="translate(-1360.418 -3271.411)" fill="#ffb27d"/>
              <path id="Path_832" data-name="Path 832" d="M1373.29,3271.29s-.811,2.164-2.055,2.484a2.449,2.449,0,0,1-1.784-.014,3.521,3.521,0,0,0,1.152-2.082S1372.678,3270.259,1373.29,3271.29Z" transform="translate(-1358.088 -3270.41)" fill="#233862"/>
              <path id="Path_833" data-name="Path 833" d="M1381.995,3271.949a2.61,2.61,0,0,1,.753.953c.148.47.214,1.437.5,1.4,0,0,.611-1.471-.076-2.3C1382.44,3271.121,1381.995,3271.949,1381.995,3271.949Z" transform="translate(-1366.993 -3270.895)" fill="#233862"/>
              <path id="Path_834" data-name="Path 834" d="M1347.859,3311.924l.889.266s2.933-4.865,3.2-6.132c.087-.412.3-1.238.549-2.161.515-1.914,1.179-4.256,1.179-4.256l.219-.948.747-3.233a10.123,10.123,0,0,0-2.265.5,1.04,1.04,0,0,0-.562.415,42.688,42.688,0,0,0-1.658,7.19c-.24,1.355-.424,2.407-.519,2.63C1349.37,3306.813,1348.555,3310.234,1347.859,3311.924Z" transform="translate(-1342.758 -3287.837)" fill="#ffb27d"/>
              <path id="Path_835" data-name="Path 835" d="M1377.126,3271.622s-.578,2.266-2.148,2.992a5.424,5.424,0,0,0,1.7-2.888C1376.814,3270.23,1377.126,3271.622,1377.126,3271.622Z" transform="translate(-1362.011 -3270.494)" fill="#233862"/>
              <path id="Path_836" data-name="Path 836" d="M1359.118,3364.245a13.523,13.523,0,0,0,1.707,5.552l.475.432s.433-2.468.745-5.294c.3-2.687.706-5.529,1.167-6.4a23.99,23.99,0,0,0,1.565-6.749c.6-4.636.82-9.683.82-9.683l-5.571-.276a9.539,9.539,0,0,0-.863,4.244,42.83,42.83,0,0,0,.286,5.788c.282,2.6.674,4.774.765,5.262h0a.292.292,0,0,1-.037.186,12.787,12.787,0,0,0-1.059,6.938Z" transform="translate(-1350.696 -3320.758)" fill="#d9935c"/>
              <path id="Path_837" data-name="Path 837" d="M1381.626,3302.119c.125,3.06.583,6.091,1.916,5.9,1.633-.238,2.059-1.763,2.146-2.9a6.516,6.516,0,0,0-.024-1.259,2.888,2.888,0,0,1-.934-.124c-.618-.57-.434-6.163-.74-6.743s-2.288-.954-2.288-.954S1381.5,3299.094,1381.626,3302.119Z" transform="translate(-1366.702 -3288.248)" fill="#ed7d2b"/>
              <path id="Path_838" data-name="Path 838" d="M1381.726,3311.858c.125,3.061.583,6.091,1.916,5.9,1.633-.238,2.059-1.763,2.146-2.9a1.828,1.828,0,0,1-1.388-.546,46.107,46.107,0,0,1-1.655-4.555S1382.252,3310.643,1381.726,3311.858Z" transform="translate(-1366.802 -3297.988)" fill="#bf253b"/>
              <path id="Path_839" data-name="Path 839" d="M1368.543,3389.1c.147.586.309,1.143.474,1.662.036.111.071.221.106.327l.053.158c.035.1.069.2.1.3q.067.193.133.375c.032.09.065.178.1.264.49,1.315.9,2.148.9,2.148l.977-.067a26.545,26.545,0,0,1-.44-4.243c0-.089,0-.179-.007-.27,0-.194-.006-.391-.006-.593v-.251a22.443,22.443,0,0,1,1.136-7.124,46.426,46.426,0,0,0,1.555-5.49,10.412,10.412,0,0,1-2.575-.126,7.175,7.175,0,0,0-1.638,2.132,3.956,3.956,0,0,1-.882,2.584C1367.473,3383.156,1367.857,3386.368,1368.543,3389.1Z" transform="translate(-1356.968 -3345.136)" fill="#233862"/>
              <path id="Path_840" data-name="Path 840" d="M1359.118,3388.622a13.527,13.527,0,0,0,1.707,5.552l.475.432s.433-2.469.745-5.295c.3-2.687.706-5.529,1.167-6.4a23.993,23.993,0,0,0,1.565-6.749,8.984,8.984,0,0,1-5.328.073c.282,2.6.674,4.774.765,5.262h0a.289.289,0,0,1-.037.186,12.788,12.788,0,0,0-1.059,6.939Z" transform="translate(-1350.696 -3345.136)" fill="#2b478b"/>
              <path id="Path_841" data-name="Path 841" d="M1355.631,3340.056a20.077,20.077,0,0,0,2.883.6,16.343,16.343,0,0,0,7.753-.6,23.228,23.228,0,0,0-.41-6.009c-.629-2.059-.923-3.044-.923-3.044a13.3,13.3,0,0,1-5.079.142,8.212,8.212,0,0,1-1.073-.277s-1.579,3.351-2.013,4.788S1355.631,3340.056,1355.631,3340.056Z" transform="translate(-1348.276 -3312.975)" fill="#2b478b"/>
              <path id="Path_842" data-name="Path 842" d="M1355.631,3340.056a20.077,20.077,0,0,0,2.883.6c3.149-1.785,1.613-9.3,1.613-9.3q-.14-.114-.273-.21a8.21,8.21,0,0,1-1.073-.277s-1.579,3.351-2.013,4.788S1355.631,3340.056,1355.631,3340.056Z" transform="translate(-1348.276 -3312.975)" fill="#233862"/>
              <path id="Path_843" data-name="Path 843" d="M1346.744,3304.295c0,.769.784,1.241,1.626,1.471a3.153,3.153,0,0,0,1.941.038c.465-.312,1.223-3.777,1.444-4.832l.063-.3s.6,1.443.624,1.577c.008.06.016.144.021.217.006.089.01.162.01.162s3.28,1.656,6.152.135c0,0,1.167-6.747.661-7.908a13.022,13.022,0,0,0-2.091-2.281.625.625,0,0,1-.061-.554.242.242,0,0,0-.3-.286,3.1,3.1,0,0,1-1.6-.141,3.857,3.857,0,0,1-.977-.478.149.149,0,0,0-.232.106c-.05.4-.171,1.137-.393,1.137a7.911,7.911,0,0,0-2.544.512c-.053.09-.6,1.317-1.28,2.942h0C1348.528,3298.862,1346.744,3303.311,1346.744,3304.295Z" transform="translate(-1341.966 -3284.731)" fill="#f42834"/>
              <path id="Path_844" data-name="Path 844" d="M1364.235,3314s.6,1.443.624,1.577c.009.061.016.144.022.217a2.971,2.971,0,0,0,1.005.528c1.023.311,1.467-1.649,1.406-2.627s-1.507-3.769-1.989-3.827S1364.235,3314,1364.235,3314Z" transform="translate(-1354.384 -3298.069)" fill="#bf253b"/>
              <path id="Path_845" data-name="Path 845" d="M1364.02,3324.427l.063-.3a1.552,1.552,0,0,0-.063.3Z" transform="translate(-1354.232 -3308.188)" fill="#e58638"/>
              <g id="Group_544" data-name="Group 544" transform="translate(10.396 17.206)">
                <path id="Path_846" data-name="Path 846" d="M1369.7,3330.066a4.238,4.238,0,0,0,2.693-.686l.121-.879c-.018.013-2.523,1.517-6.4.077l.082.666a10.173,10.173,0,0,0,3.5.822Z" transform="translate(-1366.117 -3328.501)" fill="#b64c41"/>
              </g>
              <path id="Path_847" data-name="Path 847" d="M1346.744,3315.865c0,.769.784,1.241,1.626,1.471-1.16-1.382,1.378-9.74,1.443-9.953C1348.528,3310.432,1346.744,3314.881,1346.744,3315.865Z" transform="translate(-1341.966 -3296.302)" fill="#bf253b"/>
              <path id="Path_848" data-name="Path 848" d="M1370.513,3292.355a4.717,4.717,0,0,0,2.743.754s.284-.179-.108-.359c-.367-.169-1.222-.668-1.034-1.161a3.858,3.858,0,0,1-.977-.477.149.149,0,0,0-.232.106C1370.856,3291.62,1370.735,3292.355,1370.513,3292.355Z" transform="translate(-1358.842 -3284.731)" fill="#bf253b"/>
              <g id="Group_545" data-name="Group 545" transform="translate(12.372 47.754)">
                <path id="Path_849" data-name="Path 849" d="M1373.435,3436.089h.623c.209-.033.363-.093.577-.122a.577.577,0,0,1,.5.122l.006.006h2.648c.067-.095,0-.315-.06-.477a.375.375,0,0,0-.248-.227,2.849,2.849,0,0,1-1.341-.613c-.285-.257-1.378-.948-1.378-.948h-.006c-.024,0-.138.035-.635.455-.257.216-.695-.306-.695-.306a.632.632,0,0,0-.143.2.658.658,0,0,0-.057.407,2.632,2.632,0,0,1-.19.981c-.062.182-.114.311-.114.311S1372.9,3436.021,1373.435,3436.089Z" transform="translate(-1372.928 -3433.829)" fill="#233862"/>
                <path id="Path_850" data-name="Path 850" d="M1374.172,3434.173a1.982,1.982,0,0,0,.671.339c.281.037.807-.682.807-.682h-.006c-.024,0-.138.035-.635.455-.257.216-.695-.306-.695-.306A.626.626,0,0,0,1374.172,3434.173Z" transform="translate(-1373.811 -3433.829)" fill="#466aa5"/>
                <path id="Path_851" data-name="Path 851" d="M1373.435,3440.329h.623c.209-.033.363-.094.577-.122a.577.577,0,0,1,.5.122l.006.006h2.648c.067-.1,0-.315-.06-.478-.08-.072-.1.311-.148.372a11.8,11.8,0,0,1-2.283-.067,1.28,1.28,0,0,0-1-.122,2.4,2.4,0,0,1-1.263-.24c-.062.183-.114.311-.114.311S1372.9,3440.262,1373.435,3440.329Z" transform="translate(-1372.928 -3438.069)" fill="#466aa5"/>
              </g>
              <g id="Group_546" data-name="Group 546" transform="translate(9.045 47.754)">
                <path id="Path_852" data-name="Path 852" d="M1361.964,3436.089h.623c.209-.033.363-.093.578-.122a.577.577,0,0,1,.5.122l.006.006h2.648c.067-.095,0-.315-.06-.477a.376.376,0,0,0-.248-.227,2.85,2.85,0,0,1-1.341-.613c-.286-.257-1.378-.948-1.378-.948h-.005c-.024,0-.138.035-.635.455-.257.216-.694-.306-.694-.306a.621.621,0,0,0-.144.2.658.658,0,0,0-.057.406,2.621,2.621,0,0,1-.19.981c-.062.182-.114.311-.114.311S1361.428,3436.021,1361.964,3436.089Z" transform="translate(-1361.457 -3433.829)" fill="#233862"/>
                <path id="Path_853" data-name="Path 853" d="M1362.7,3434.173a1.987,1.987,0,0,0,.671.339c.281.037.807-.682.807-.682h-.005c-.024,0-.138.035-.635.455-.257.216-.694-.306-.694-.306a.623.623,0,0,0-.144.194Z" transform="translate(-1362.34 -3433.829)" fill="#466aa5"/>
                <path id="Path_854" data-name="Path 854" d="M1361.964,3440.329h.623c.209-.033.363-.094.578-.122a.577.577,0,0,1,.5.122l.006.006h2.648c.067-.1,0-.315-.06-.478-.081-.072-.1.311-.147.372a11.775,11.775,0,0,1-2.283-.067,1.279,1.279,0,0,0-1-.122,2.4,2.4,0,0,1-1.263-.24c-.062.183-.114.311-.114.311S1361.428,3440.262,1361.964,3440.329Z" transform="translate(-1361.457 -3438.069)" fill="#466aa5"/>
              </g>
              <g id="Group_550" data-name="Group 550" transform="translate(0 26.052)">
                <path id="Path_855" data-name="Path 855" d="M1335.129,3363.13a.9.9,0,0,1,.575-.671,3.507,3.507,0,0,1,2.232-.055c1.63.479,1.791,1.481,1.682,2.2s.212,1.87.165,2.688-.281,2.871-1.489,2.763-5.1-1.154-5.1-1.154-.672-1.279.709-3.134a6.659,6.659,0,0,0,1.226-2.637Z" transform="translate(-1332.231 -3361.307)" fill="#233862"/>
                <g id="Group_549" data-name="Group 549">
                  <g id="Group_547" data-name="Group 547" transform="translate(3.646)">
                    <path id="Path_856" data-name="Path 856" d="M1342.841,3359.879l.323.029a.727.727,0,0,1,.185-.364.527.527,0,0,1,.468-.114.489.489,0,0,1,.388.252.774.774,0,0,1,.042.445l.315.073a1.288,1.288,0,0,0-.07-.762.772.772,0,0,0-.6-.423.811.811,0,0,0-.727.21,1.248,1.248,0,0,0-.324.654Z" transform="translate(-1342.841 -3359.001)" fill="#233862"/>
                  </g>
                  <g id="Group_548" data-name="Group 548" transform="translate(0 0.761)">
                    <path id="Path_857" data-name="Path 857" d="M1330.435,3368.28s3.893,1.049,5.1,1.155,1.443-1.944,1.487-2.764-.271-1.965-.165-2.688a2.012,2.012,0,0,0,.025-.44c-.031-.643-.392-1.374-1.7-1.76a3.5,3.5,0,0,0-2.234.056.9.9,0,0,0-.575.669c-.015.063-.027.14-.044.215a6.743,6.743,0,0,1-1.181,2.427C1329.762,3367,1330.435,3368.28,1330.435,3368.28Z" transform="translate(-1330.271 -3361.627)" fill="#2b478b"/>
                    <path id="Path_858" data-name="Path 858" d="M1345.782,3378.309a1.447,1.447,0,0,1-1.273.337,1.8,1.8,0,0,1-1.073-.869Z" transform="translate(-1339.618 -3373.094)" fill="#233862"/>
                    <path id="Path_859" data-name="Path 859" d="M1336.051,3376.107a1.448,1.448,0,0,1-1.273.338,1.806,1.806,0,0,1-1.073-.871Z" transform="translate(-1332.709 -3371.53)" fill="#233862"/>
                    <path id="Path_860" data-name="Path 860" d="M1337.4,3362.507c-.015.063-.027.14-.044.215a2.8,2.8,0,0,0,1.893,1.648,2.86,2.86,0,0,0,2.665-.828c-.031-.643-.392-1.374-1.7-1.76a3.5,3.5,0,0,0-2.234.056.9.9,0,0,0-.58.669Z" transform="translate(-1335.297 -3361.627)" fill="#233862"/>
                    <path id="Path_861" data-name="Path 861" d="M1343.419,3370.922h0a.2.2,0,0,0,.236-.149l.039-.175a.2.2,0,0,0-.149-.236h0a.2.2,0,0,0-.236.149l-.04.175A.2.2,0,0,0,1343.419,3370.922Z" transform="translate(-1339.497 -3367.825)" fill="#d86713"/>
                  </g>
                </g>
              </g>
              <path id="Path_862" data-name="Path 862" d="M1345.2,3351.713a2.324,2.324,0,0,1-.552.814,1.577,1.577,0,0,0-.607.948.838.838,0,0,0,.732,1.022c.355,0,.7-.485.9-1.642.011-.063.349-.728.349-.728Z" transform="translate(-1340.038 -3327.775)" fill="#ffb27d"/>
            </g>
            <g id="Group_553" data-name="Group 553" transform="translate(91.855 54.907)">
              <g id="Group_552" data-name="Group 552" transform="translate(12.582 22.993)">
                <path id="Path_863" data-name="Path 863" d="M1530.025,3380.486l.221-23.67s.191-1.705,1.678-1.705c1.587,0,1.678,1.705,1.678,1.705a.179.179,0,0,1-.186.147.192.192,0,0,1-.2-.147s-.07-1.314-1.294-1.314c-1.147,0-1.294,1.314-1.294,1.314v23.67Z" transform="translate(-1529.848 -3355.111)" fill="#233862"/>
                <path id="Path_864" data-name="Path 864" d="M1530.4,3439.685h-.987l.088-1.032s-.009-.143.191-.152.551-.033.586.078S1530.4,3439.685,1530.4,3439.685Z" transform="translate(-1529.412 -3414.31)" fill="#233862"/>
              </g>
              <path id="Path_865" data-name="Path 865" d="M1534.132,3350.786l.068.339a2.168,2.168,0,0,1,2.064,1.787s.106.746-.432.587-.454-.54-1.216-.749-1.259-.368-1.374-.923l-.125-.617Z" transform="translate(-1519.461 -3329.047)" fill="#ffb27d"/>
              <path id="Path_866" data-name="Path 866" d="M1516.211,3300.184s.443,1.742.824,3.334c.154.641.3,1.258.4,1.728a3.988,3.988,0,0,1,.14.845c-.332.539.275,3.824.754,5.018.042.106.1.229.17.367.671,1.315,2.457,3.9,2.457,3.9a2.247,2.247,0,0,0,.833-.072,1.1,1.1,0,0,0,.463-.44,46.492,46.492,0,0,0-1.637-5c-.356-.729-.88-7.486-1.569-8.4C1518.471,3300.709,1516.211,3300.184,1516.211,3300.184Z" transform="translate(-1507.457 -3293.122)" fill="#a88336"/>
              <path id="Path_867" data-name="Path 867" d="M1520.569,3316.955c-.332.539.274,3.825.754,5.018.042.1.1.229.17.367.641-2.835-.421-6.853-.421-6.853a1.314,1.314,0,0,0-.643.623A3.991,3.991,0,0,1,1520.569,3316.955Z" transform="translate(-1510.452 -3303.987)" fill="#7f6433"/>
              <path id="Path_868" data-name="Path 868" d="M1504.824,3431.76s-.171,2.567.314,2.6h5.546a1.055,1.055,0,0,0-.945-.91,4.141,4.141,0,0,1-2.929-1.964C1506.24,3430.252,1504.824,3431.76,1504.824,3431.76Z" transform="translate(-1499.352 -3385.999)" fill="#0f2949"/>
              <path id="Path_869" data-name="Path 869" d="M1488.81,3431.76s-.17,2.567.314,2.6h5.546a1.056,1.056,0,0,0-.945-.91,4.141,4.141,0,0,1-2.929-1.964C1490.227,3430.252,1488.81,3431.76,1488.81,3431.76Z" transform="translate(-1487.983 -3385.999)" fill="#163560"/>
              <path id="Path_870" data-name="Path 870" d="M1502.423,3365.172a33.459,33.459,0,0,0-.176,3.739c.077,1.759.133,3.243.133,3.243a8.011,8.011,0,0,0,3.288-.085s.755-4.445,1.376-7.994c.279-1.59.51-2.965.6-3.615.28-2.1-.3-13.262-.3-13.262s-3.138-2.012-4.435-.974-2.094,2.05-.005,13.408C1503.062,3360.5,1502.593,3362.741,1502.423,3365.172Z" transform="translate(-1497.097 -3325.598)" fill="#2b478b"/>
              <path id="Path_871" data-name="Path 871" d="M1502.423,3365.172a40.31,40.31,0,0,0-.161,4.081c1.091-1.155,3.241-3.591,4.782-5.177.279-1.59.51-2.965.6-3.615.28-2.1-.3-13.262-.3-13.262s-3.138-2.012-4.435-.974-2.094,2.05-.005,13.408C1503.062,3360.5,1502.593,3362.741,1502.423,3365.172Z" transform="translate(-1497.097 -3325.598)" fill="#233862"/>
              <path id="Path_872" data-name="Path 872" d="M1495.076,3347.325s-.282,11.175-.722,13.246-2.739,11.556-2.739,11.556a8.875,8.875,0,0,1-3.28-.286s.072-4.392.454-6.973c.357-2.411,1-4.615.905-5.487-1.21-11.485-.337-12.434,1.036-13.368S1495.076,3347.325,1495.076,3347.325Z" transform="translate(-1487.666 -3325.497)" fill="#2b478b"/>
              <path id="Path_873" data-name="Path 873" d="M1493,3353.127a2.169,2.169,0,0,1-.688,2.642s-.622.426-.718-.127.015-.36-.135-1.136a2.039,2.039,0,0,1,.488-1.926Z" transform="translate(-1489.846 -3330.321)" fill="#ffb27d"/>
              <path id="Path_874" data-name="Path 874" d="M1508.148,3288.912a4.332,4.332,0,0,0-.69,2.531l-1.275,3.072-2.3-3.517a8.067,8.067,0,0,0,1.669-3.126Z" transform="translate(-1498.705 -3284.381)" fill="#ffb27d"/>
              <path id="Path_875" data-name="Path 875" d="M1511.593,3282.909s-3.138.135-3.194-1.748-.9-3.136,1.442-3.3c1.93-.136,2.572.669,2.743,1.293S1512.756,3282.807,1511.593,3282.909Z" transform="translate(-1501.772 -3277.261)" fill="#ffb27d"/>
              <path id="Path_876" data-name="Path 876" d="M1490.014,3314.4c.674.063,1.6.14,2.728.211l.7.042a12.313,12.313,0,0,0,4.751-.36s.09-.073.062-.472a30.562,30.562,0,0,0-.532-3.054c.119-.878,2.249-8.044,2.249-8.044a3.753,3.753,0,0,0-2.477-3.326,5.978,5.978,0,0,0-.862-.287,1.038,1.038,0,0,1-1.185.692,4.041,4.041,0,0,1-2.306-1.152h-.088a6.844,6.844,0,0,0-.211.747,6.285,6.285,0,0,1-.873,2.525,19.142,19.142,0,0,0-1.394,2.039,16.911,16.911,0,0,0-.849,1.63C1487.5,3310.513,1489.22,3314.321,1490.014,3314.4Z" transform="translate(-1487.873 -3292.029)" fill="#a88336"/>
              <path id="Path_877" data-name="Path 877" d="M1491.938,3326.912c.674.063,1.6.141,2.728.211a27.453,27.453,0,0,0-1.926-10.849,2.073,2.073,0,0,0-.242.2,3.51,3.51,0,0,0-.849,1.63C1490.977,3320.613,1491.539,3324.689,1491.938,3326.912Z" transform="translate(-1489.797 -3304.545)" fill="#7f6433"/>
              <path id="Path_878" data-name="Path 878" d="M1513.066,3288.773s.611,2.423-.426,2.765a2.893,2.893,0,0,1-3.787-2.9,6.206,6.206,0,0,0,2.134.84c.69-.022,1.135-.42,1.773-.109C1512.759,3289.365,1512.993,3289.35,1513.066,3288.773Z" transform="translate(-1502.233 -3284.922)" fill="#2b478b"/>
              <path id="Path_879" data-name="Path 879" d="M1491.207,3298.65a4.781,4.781,0,0,0-3.352,1.557c-.888,1.156-1.826,7.354-1.826,8.288s1,6.084,1.559,6.644a2.114,2.114,0,0,0,.846,0,1.712,1.712,0,0,0,.815-.4s-.278-5.735-.278-6.273c0-.779,2.435-5.546,2.435-5.546A4.2,4.2,0,0,0,1491.207,3298.65Z" transform="translate(-1486.029 -3292.032)" fill="#a88336"/>
              <path id="Path_880" data-name="Path 880" d="M1506.525,3277.018a.546.546,0,0,1,.29-.294,3.357,3.357,0,0,1,3.058.073c-1.083-1.454-3.7-1.149-4.248.163-.9,2.141.745,2.587.745,2.587s1.642-.69.691-1.555a1.551,1.551,0,0,1-.518-.763h0a.77.77,0,0,1-.018-.211Z" transform="translate(-1499.751 -3275.834)" fill="#2b478b"/>
            </g>
            <g id="Group_560" data-name="Group 560" transform="translate(23.286 53.958)">
              <path id="Path_881" data-name="Path 881" d="M1265.212,3422.019l-.383,1.612-.508,2.138h-1.589l-.095-2.048-.073-1.579Z" transform="translate(-1258.806 -3378.672)" fill="#ffb27d"/>
              <path id="Path_882" data-name="Path 882" d="M1283.525,3299.346s1.257-1.345,2.075-.29a11.075,11.075,0,0,0,2.978,2.578c1.255.811-1.108,7.171-2.68,7.04S1277.915,3303.53,1283.525,3299.346Z" transform="translate(-1272.084 -3291.086)" fill="#ed7d2b"/>
              <path id="Path_883" data-name="Path 883" d="M1267.471,3297.194a8.656,8.656,0,0,1,6.021-.251c2.818.976-2.182,3.693-2.182,3.693l-1.62.07Z" transform="translate(-1262.29 -3289.573)" fill="#a53232"/>
              <path id="Path_884" data-name="Path 884" d="M1268.837,3290.292a14.882,14.882,0,0,1-.278,2.508l-1.755,3.782,6.6-1.57-1.575-2.177a10.581,10.581,0,0,1-.226-3.181C1271.858,3288.8,1268.837,3290.292,1268.837,3290.292Z" transform="translate(-1261.818 -3284.51)" fill="#ffb27d"/>
              <path id="Path_885" data-name="Path 885" d="M1273.779,3293.329s.522,1.257,1.506,1.229,1.208-1.14,1.208-1.14Z" transform="translate(-1266.769 -3287.307)" fill="#ed985f"/>
              <path id="Path_886" data-name="Path 886" d="M1270.139,3277.569a15.813,15.813,0,0,0-.539-2.067,2.015,2.015,0,0,1,2.051-2.734,2.832,2.832,0,0,0,1.46-.2s0,.314-.129.425a1.634,1.634,0,0,1,1.515.536c.665.74-.443,3.326-.388,3.936Z" transform="translate(-1263.717 -3272.565)" fill="#2c3a64"/>
              <path id="Path_887" data-name="Path 887" d="M1273.627,3284.261a2.427,2.427,0,0,1-2.025-2.138v-1.834a.732.732,0,0,1,.665-.78h2.72a.732.732,0,0,1,.665.78v1.73a2.365,2.365,0,0,1-2.025,2.242Z" transform="translate(-1265.224 -3277.495)" fill="#ffb27d"/>
              <path id="Path_888" data-name="Path 888" d="M1271.38,3280.252s0-1.1.877-1.272,2.827.537,3.1-.267-3.777-.79-3.981-.277A5.181,5.181,0,0,0,1271.38,3280.252Z" transform="translate(-1265.001 -3276.478)" fill="#2c3a64"/>
              <path id="Path_889" data-name="Path 889" d="M1269.505,3350.11l-3.867.241q-.033-.054-.075,0l-1.138.071-4.849-.3a51.511,51.511,0,0,0-.74,12.982c.153,2.366.4,5.525.445,7.79h3.6c.431-2.8,1.031-5.7,1.3-6.9q.183-.817.34-1.621a10.288,10.288,0,0,1,.156,1.412,12.638,12.638,0,0,0,.341,2.223c.28,1.332.669,2.982.914,4.585h3.649c.042-2.208.5-5.221.542-7.489a126.956,126.956,0,0,0-.618-12.994Z" transform="translate(-1256.082 -3327.62)" fill="#2b478b"/>
              <path id="Path_890" data-name="Path 890" d="M1259.981,3360s1.385,1.678,5.148,1.436a22.11,22.11,0,0,0,5.559-.9Z" transform="translate(-1256.973 -3334.638)" fill="#233862"/>
              <path id="Path_891" data-name="Path 891" d="M1270.069,3318.682c-1.229.167-9.592.6-10.707-.539s1.82-16.7,1.82-16.7a8.781,8.781,0,0,1,.893-.2c.286-.054.631-.11,1.021-.157a3.3,3.3,0,0,0,1.625,2.713,2.708,2.708,0,0,0,1.65-2.684.188.188,0,0,0-.008-.067c.244.026.491.06.739.1a10.416,10.416,0,0,1,1.514.375S1271.3,3318.515,1270.069,3318.682Z" transform="translate(-1256.354 -3292.785)" fill="#f42834"/>
              <path id="Path_892" data-name="Path 892" d="M1252.688,3311.636a4,4,0,0,0,.754,1.159c.968,1.265,2.516,3.1,2.516,3.1a6.317,6.317,0,0,1-.108,1.026,23.258,23.258,0,0,1-4.517-2.7,7.014,7.014,0,0,1-1.724-1.757c2.148-9.087,4.9-10.034,4.9-10.034l.9,5.476S1252.839,3311.439,1252.688,3311.636Z" transform="translate(-1249.609 -3293.773)" fill="#bc3f3f"/>
              <path id="Path_893" data-name="Path 893" d="M1274.364,3301.148l-.554,1.685-.738,1.084-1.06.575-1-.575-1.677-2.679c.286-.054.631-.11,1.021-.157a3.3,3.3,0,0,0,1.625,2.713,2.708,2.708,0,0,0,1.65-2.684.5.5,0,0,0-.008-.067C1273.868,3301.071,1274.115,3301.1,1274.364,3301.148Z" transform="translate(-1263.615 -3292.785)" fill="#ee9849"/>
              <path id="Path_894" data-name="Path 894" d="M1260.178,3341.257v.052c0,.115-.012.222-.02.32a1.82,1.82,0,0,1-.177.208,1.874,1.874,0,0,1-.311.252l-.161-.079a22.279,22.279,0,0,1-3.954-2.426,4.744,4.744,0,0,0,2.109-1.434C1258.63,3339.416,1260.178,3341.257,1260.178,3341.257Z" transform="translate(-1253.83 -3319.129)" fill="#ffb27d"/>
              <path id="Path_895" data-name="Path 895" d="M1292.528,3311.818a7.007,7.007,0,0,1-1.69,1.791,23.231,23.231,0,0,1-4.464,2.785,6.336,6.336,0,0,1-.128-1.024s1.512-1.87,2.456-3.153a3.983,3.983,0,0,0,.732-1.173c-.12-.151-1.734-2.273-2.453-3.22l-.342-.451.912-5.383S1290.206,3302.774,1292.528,3311.818Z" transform="translate(-1275.62 -3293.456)" fill="#bc3f3f"/>
              <path id="Path_896" data-name="Path 896" d="M1291.012,3338.644a22.391,22.391,0,0,1-3.926,2.512l-.136.071a2.536,2.536,0,0,1-.458-.91l.118-.146c.434-.542,1.526-1.912,2.266-2.919A4.743,4.743,0,0,0,1291.012,3338.644Z" transform="translate(-1275.795 -3318.49)" fill="#ffb27d"/>
              <path id="Path_897" data-name="Path 897" d="M1276.123,3299.063a14.633,14.633,0,0,0-3.267.038v-.007S1275.879,3297.225,1276.123,3299.063Z" transform="translate(-1266.114 -3290.803)" fill="#ffb27d"/>
              <g id="Group_555" data-name="Group 555" transform="translate(6.781 10.635)">
                <g id="Group_554" data-name="Group 554" transform="translate(0.088)">
                  <path id="Path_898" data-name="Path 898" d="M1273.4,3312.146h-.062l-.046-2.914h.157Z" transform="translate(-1273.293 -3309.232)" fill="#bbd4ff"/>
                </g>
                <path id="Path_899" data-name="Path 899" d="M1273.118,3318.942c-.056.085-.183.367-.1.4a.354.354,0,0,0,.272-.009C1273.33,3319.292,1273.224,3318.782,1273.118,3318.942Z" transform="translate(-1272.991 -3316.104)" fill="#ee9849"/>
              </g>
              <g id="Group_557" data-name="Group 557" transform="translate(9.644 10.635)">
                <g id="Group_556" data-name="Group 556" transform="translate(0.088)">
                  <path id="Path_900" data-name="Path 900" d="M1283.27,3312.146h-.062l-.046-2.914h.157Z" transform="translate(-1283.162 -3309.232)" fill="#bbd4ff"/>
                </g>
                <path id="Path_901" data-name="Path 901" d="M1282.986,3318.942c-.057.085-.184.367-.1.4a.354.354,0,0,0,.272-.009C1283.2,3319.292,1283.093,3318.782,1282.986,3318.942Z" transform="translate(-1282.859 -3316.104)" fill="#ee9849"/>
              </g>
              <path id="Path_902" data-name="Path 902" d="M1268.385,3302.224l-2.57-2.477s-.579-.411.336-1.025S1268.385,3302.224,1268.385,3302.224Z" transform="translate(-1260.986 -3291.091)" fill="#a53232"/>
              <path id="Path_903" data-name="Path 903" d="M1282.214,3302.224l2.57-2.477s.579-.411-.336-1.025S1282.214,3302.224,1282.214,3302.224Z" transform="translate(-1272.758 -3291.091)" fill="#a53232"/>
              <g id="Group_558" data-name="Group 558" transform="translate(4.42 20.739)">
                <path id="Path_904" data-name="Path 904" d="M1273.111,3346.306a1.591,1.591,0,0,1-1.241-.372,1.477,1.477,0,0,1-.15-.155,2.453,2.453,0,0,1-.477-.985,3.361,3.361,0,0,1-.1-.65v-.072h-4.152v.078a2.324,2.324,0,0,1-.215,1.144,1.645,1.645,0,0,1-.3.422,1.75,1.75,0,0,1-.366.28,2.519,2.519,0,0,1-1.181.309h-.077v1.754h8.343V3346.3Z" transform="translate(-1264.849 -3344.072)" fill="#a53232"/>
              </g>
              <path id="Path_905" data-name="Path 905" d="M1294.328,3323.558s-2.314-3.037-.482-3.921c.728-.351,1.751,3.816,1.2,4.208s-1.452.886-1.452.886Z" transform="translate(-1280.515 -3305.969)" fill="#a53232"/>
              <path id="Path_906" data-name="Path 906" d="M1258.066,3322.285s.8-3.813.1-3.42-1.751,3.816-1.2,4.208,1.452.886,1.452.886Z" transform="translate(-1254.72 -3305.416)" fill="#a53232"/>
              <g id="Group_559" data-name="Group 559" transform="translate(12.086 8.746)">
                <path id="Path_907" data-name="Path 907" d="M1292.684,3311.553a8.915,8.915,0,0,1-1.4-5.641,25.7,25.7,0,0,1,.282-3.192l.867.675a5.987,5.987,0,0,0-.536,2.522,12.526,12.526,0,0,0,.726,5.144Z" transform="translate(-1291.281 -3302.72)" fill="#ed7d2b"/>
              </g>
              <path id="Path_908" data-name="Path 908" d="M1262.524,3419.136h-1.862c-.165.019-.423-.223-.423-.568a6.911,6.911,0,0,0-.058-.974c-.24-.644.117-.679.462-.679h3.4c.345,0-.183,1.066-.183,1.412l.122.452C1263.979,3419.122,1262.869,3419.136,1262.524,3419.136Z" transform="translate(-1257.059 -3375.048)" fill="#233862"/>
              <path id="Path_909" data-name="Path 909" d="M1263.193,3429.715h0l.508-2.138a3.317,3.317,0,0,1-2.192.09l.094,2.048h0s-.406,1.053-.517,1.312a4.24,4.24,0,0,0-.111,1.036h2.531s.018-.759,0-1.073a9.794,9.794,0,0,0-.313-1.275Z" transform="translate(-1257.679 -3382.619)" fill="#233862"/>
              <path id="Path_910" data-name="Path 910" d="M1285.052,3422.019l.383,1.612.509,2.138h1.589l.095-2.048.073-1.579Z" transform="translate(-1274.773 -3378.672)" fill="#ffb27d"/>
              <path id="Path_911" data-name="Path 911" d="M1284.3,3419.136h1.862c.165.019.423-.223.423-.568a6.823,6.823,0,0,1,.059-.974c.24-.644-.117-.679-.462-.679h-3.4c-.345,0,.183,1.066.183,1.412l-.122.452C1282.845,3419.122,1283.955,3419.136,1284.3,3419.136Z" transform="translate(-1273.079 -3375.048)" fill="#233862"/>
              <path id="Path_912" data-name="Path 912" d="M1288.986,3431.027c-.111-.259-.517-1.312-.517-1.312h0l.094-2.048a3.317,3.317,0,0,1-2.192-.09l.509,2.138h0a9.668,9.668,0,0,0-.314,1.275c-.019.314,0,1.073,0,1.073h2.531A4.231,4.231,0,0,0,1288.986,3431.027Z" transform="translate(-1275.711 -3382.619)" fill="#233862"/>
            </g>
            <g id="Group_561" data-name="Group 561" transform="translate(17.989 37.254)">
              <path id="Path_913" data-name="Path 913" d="M1234.792,3214.969l-.034,2.116-1.008,63.629a.281.281,0,0,1-.281.276h-.075a.557.557,0,0,1-.556-.544l-1.4-61.419-.092-4.058Z" transform="translate(-1231.348 -3214.969)" fill="#f42834"/>
              <path id="Path_914" data-name="Path 914" d="M1234.792,3214.969l-.034,2.116a8.12,8.12,0,0,0-3.318,1.942l-.092-4.058Z" transform="translate(-1231.348 -3214.969)" fill="#bf253b"/>
            </g>
            <g id="Group_562" data-name="Group 562" transform="translate(112.708 37.254)">
              <path id="Path_915" data-name="Path 915" d="M1561.37,3214.969l-.034,2.116-1.009,63.629a.28.28,0,0,1-.28.276h-.075a.557.557,0,0,1-.556-.544l-1.4-61.419-.092-4.058Z" transform="translate(-1557.927 -3214.969)" fill="#f42834"/>
              <path id="Path_916" data-name="Path 916" d="M1561.37,3214.969l-.034,2.116a8.119,8.119,0,0,0-3.318,1.942l-.092-4.058Z" transform="translate(-1557.927 -3214.969)" fill="#bf253b"/>
            </g>
            <g id="Group_563" data-name="Group 563" transform="translate(14.062 28.482)">
              <path id="Path_917" data-name="Path 917" d="M1324.465,3185.544v7.5a.764.764,0,0,1-.109.394.9.9,0,0,1-.777.426H1218.693a.857.857,0,0,1-.885-.82v-7.5a.856.856,0,0,1,.885-.82h104.885a.857.857,0,0,1,.887.82Z" transform="translate(-1217.808 -3184.724)" fill="#bf253b"/>
              <path id="Path_918" data-name="Path 918" d="M1402.055,3185.544v7.5a.764.764,0,0,1-.109.394q-.473.218-.963.426H1356.7a285.71,285.71,0,0,1-29.6-9.136h74.073a.857.857,0,0,1,.882.816Z" transform="translate(-1295.399 -3184.724)" fill="#f42834"/>
            </g>
            <path id="Path_919" data-name="Path 919" d="M1216.881,3418.385s-2.952-4.509-4.775-3.645S1216.881,3418.385,1216.881,3418.385Z" transform="translate(-1199.472 -3319.468)" fill="#b8e0af"/>
            <path id="Path_920" data-name="Path 920" d="M1228.819,3416.914s-.173-3.256-1.128-3.126S1228.819,3416.914,1228.819,3416.914Z" transform="translate(-1210.584 -3318.868)" fill="#b8e0af"/>
          </g>
        </g>
      </g>
      <g id="Group_567" data-name="Group 567" transform="translate(183.512 73.695)">
        <g id="Group_215" data-name="Group 215" transform="translate(21.827 6.431)">
          <path id="Path_411" data-name="Path 411" d="M1799.94,3333.571h.14a3,3,0,0,0,.756,1.519,1.8,1.8,0,0,0,1.446.56,1.484,1.484,0,0,0,1.634-1.318c0-.042.007-.085.008-.128,0-1.857-3.845-.756-3.845-3.433a2.106,2.106,0,0,1,2.248-1.923,6.472,6.472,0,0,1,1.511.345c.168,0,.2-.048.261-.2h.149v1.773h-.121c-.289-.858-.6-1.792-1.81-1.792-.989,0-1.54.617-1.54,1.167,0,1.726,4,.9,4,3.37a2.394,2.394,0,0,1-2.575,2.268,11.367,11.367,0,0,1-1.829-.354c-.168,0-.224.047-.289.214h-.149Z" transform="translate(-1799.939 -3328.737)" fill="#fff"/>
          <path id="Path_412" data-name="Path 412" d="M1819.214,3329.367h3.069v.13h-.858v6.382h.858v.131h-3.069v-.131h.858V3329.5h-.858Z" transform="translate(-1813.624 -3329.106)" fill="#fff"/>
          <path id="Path_413" data-name="Path 413" d="M1830.378,3335.24h.793l2.78-6.773h.252l2.939,6.773h.8v.131h-3.133v-.131h.868l-1.083-2.5h-2.239l-1.036,2.5h.83v.131h-1.774Zm3.069-5.178-1.044,2.547h2.146Z" transform="translate(-1821.55 -3328.467)" fill="#fff"/>
          <path id="Path_414" data-name="Path 414" d="M1856.886,3329.367h2.4l1.614,4.646h.018l1.642-4.646h2.333v.13h-.858v6.382h.858v.131h-3.06v-.131h.849V3329.5h-.018l-2.3,6.513h-.149l-2.3-6.513h-.019v6.382h.859v.131h-1.866v-.131h.858V3329.5h-.858Z" transform="translate(-1840.37 -3329.106)" fill="#fff"/>
          <path id="Path_415" data-name="Path 415" d="M1885.868,3329.367h2.4l1.614,4.646h.018l1.642-4.646h2.333v.13h-.858v6.382h.858v.131h-3.06v-.131h.849V3329.5h-.018l-2.3,6.513h-.149l-2.3-6.513h-.018v6.382h.858v.131h-1.867v-.131h.858V3329.5h-.858Z" transform="translate(-1860.946 -3329.106)" fill="#fff"/>
          <path id="Path_416" data-name="Path 416" d="M1913.891,3335.24h.793l2.78-6.773h.252l2.939,6.773h.8v.131h-3.133v-.131h.868l-1.082-2.5h-2.239l-1.035,2.5h.83v.131h-1.774Zm3.069-5.178-1.044,2.547h2.146Z" transform="translate(-1880.841 -3328.467)" fill="#fff"/>
          <path id="Path_417" data-name="Path 417" d="M1940.462,3329.367h3.07v.13h-.858v6.382h1.54c.812,0,1.726-.522,2.041-1.978h.121v2.109h-5.913v-.131h.858V3329.5h-.858Z" transform="translate(-1899.706 -3329.106)" fill="#fff"/>
          <path id="Path_418" data-name="Path 418" d="M1962.072,3329.367h3.07v.13h-.86v6.382h1.54c.812,0,1.726-.522,2.041-1.978h.121v2.109h-5.915v-.131h.858V3329.5h-.858Z" transform="translate(-1915.046 -3329.106)" fill="#fff"/>
        </g>
        <g id="Group_216" data-name="Group 216">
          <path id="Path_419" data-name="Path 419" d="M1751.374,3311a2.561,2.561,0,1,0,3.523,0,4.818,4.818,0,0,1,.575-.489l.055-.039a8.428,8.428,0,0,0-2.37-4.158l-.021-.021-.021.021a8.45,8.45,0,0,0-2.374,4.158l.055.04a4.828,4.828,0,0,1,.578.488Z" transform="translate(-1743.183 -3306.295)" fill="#fff"/>
          <path id="Path_420" data-name="Path 420" d="M1754.9,3347.886a2.56,2.56,0,1,0-3.523,0,4.8,4.8,0,0,1-.576.491l-.055.039a8.42,8.42,0,0,0,2.371,4.156l.021.02.022-.02a8.429,8.429,0,0,0,2.37-4.156l-.054-.04a4.788,4.788,0,0,1-.576-.49Z" transform="translate(-1743.188 -3332.687)" fill="#fff"/>
          <path id="Path_421" data-name="Path 421" d="M1770.929,3334.734a8.43,8.43,0,0,0-4.158-2.371l-.039.055a4.857,4.857,0,0,1-.49.575,2.565,2.565,0,1,0,0,3.525,4.88,4.88,0,0,1,.488.573l.04.056a8.419,8.419,0,0,0,4.158-2.37l.021-.021Z" transform="translate(-1751.045 -3324.802)" fill="#fff"/>
          <path id="Path_422" data-name="Path 422" d="M1729.389,3336.521a2.564,2.564,0,1,0,0-3.523,4.85,4.85,0,0,1-.49-.575l-.04-.055a8.427,8.427,0,0,0-4.157,2.37l-.021.021.021.021a8.427,8.427,0,0,0,4.157,2.371l.039-.055A4.873,4.873,0,0,1,1729.389,3336.521Z" transform="translate(-1724.682 -3324.805)" fill="#fff"/>
          <path id="Path_423" data-name="Path 423" d="M1762.892,3318.424h0a2.561,2.561,0,1,0,2.492,2.491,4.8,4.8,0,0,1,.753.061l.067.011a8.355,8.355,0,0,0,1.264-4.522v-.123h-.127a8.342,8.342,0,0,0-4.52,1.264.588.588,0,0,0,.011.067A4.766,4.766,0,0,1,1762.892,3318.424Z" transform="translate(-1750.476 -3313.428)" fill="#fff"/>
          <path id="Path_424" data-name="Path 424" d="M1736.809,3320.918h0a2.56,2.56,0,1,0,2.488-2.492,4.858,4.858,0,0,1,.061-.753.351.351,0,0,1,.011-.066,8.352,8.352,0,0,0-4.52-1.264h-.125v.126a8.347,8.347,0,0,0,1.264,4.52l.067-.011a4.785,4.785,0,0,1,.754-.061Z" transform="translate(-1731.812 -3313.428)" fill="#fff"/>
          <path id="Path_425" data-name="Path 425" d="M1765.373,3344.493h0a2.564,2.564,0,1,0-2.492,2.492,4.747,4.747,0,0,1-.061.753.386.386,0,0,1-.011.066,8.36,8.36,0,0,0,4.52,1.264h.127v-.124a8.37,8.37,0,0,0-1.265-4.524l-.067.011a4.9,4.9,0,0,1-.751.061Z" transform="translate(-1750.464 -3332.077)" fill="#fff"/>
          <path id="Path_426" data-name="Path 426" d="M1739.3,3347.009h0a2.559,2.559,0,1,0-2.49-2.491,4.833,4.833,0,0,1-.753-.061l-.066-.012a8.353,8.353,0,0,0-1.264,4.52v.127h.125a8.351,8.351,0,0,0,4.52-1.265l-.011-.066a4.775,4.775,0,0,1-.061-.752Z" transform="translate(-1731.814 -3332.1)" fill="#fff"/>
        </g>
      </g>
    </g>
    <path id="Rectangle_115" data-name="Rectangle 115" d="M.4,0H257.22a.4.4,0,0,1,.4.4h0a.4.4,0,0,1-.4.4H.4A.4.4,0,0,1,0,.4H0A.4.4,0,0,1,.4,0Z" transform="translate(1110.502 3165.153)" fill="#2e3552"/>
  </g>
</svg>
