<svg id="facebook" xmlns="http://www.w3.org/2000/svg" width="20" height="20" viewBox="0 0 20 20">
  <path id="Icon_color" data-name="Icon color" d="M20,2.353V17.647A2.353,2.353,0,0,1,17.647,20H13.235a.588.588,0,0,1-.588-.588V13.529H15.4a.588.588,0,0,0,.576-.471l.424-2.118a.294.294,0,0,0-.282-.353H12.647V6.765a.294.294,0,0,1,.294-.294h2.941a.588.588,0,0,0,.588-.588V4.118a.588.588,0,0,0-.588-.588H12.941A3.529,3.529,0,0,0,9.412,7.059v3.529H7.965a.588.588,0,0,0-.588.588v1.765a.588.588,0,0,0,.588.588H9.412v5.882A.588.588,0,0,1,8.824,20H2.353A2.353,2.353,0,0,1,0,17.647V2.353A2.353,2.353,0,0,1,2.353,0H17.647A2.353,2.353,0,0,1,20,2.353Z" fill="#f8f8f8"/>
</svg>
