<svg id="gmail" xmlns="http://www.w3.org/2000/svg" width="20" height="20.404" viewBox="0 0 20 20.404">
  <path id="Trazado_428" data-name="Trazado 428" d="M281.9,225.173a12,12,0,0,0-.176-2.073H272.1v3.928h5.51a4.722,4.722,0,0,1-2.039,3.1v2.549h3.287A9.963,9.963,0,0,0,281.9,225.173Z" transform="translate(-261.899 -214.736)" fill="#4285f4"/>
  <path id="Trazado_429" data-name="Trazado 429" d="M38.016,332.547a9.766,9.766,0,0,0,6.762-2.463l-3.287-2.549a6.187,6.187,0,0,1-9.2-3.235H28.9v2.628A10.2,10.2,0,0,0,38.016,332.547Z" transform="translate(-27.815 -312.143)" fill="#34a853"/>
  <path id="Trazado_430" data-name="Trazado 430" d="M4.424,156.534a6.11,6.11,0,0,1,0-3.906V150H1.035a10.21,10.21,0,0,0,0,9.161Z" transform="translate(0.05 -144.377)" fill="#fbbc04"/>
  <path id="Trazado_431" data-name="Trazado 431" d="M38.016,4.019A5.544,5.544,0,0,1,41.93,5.549h0l2.913-2.913A9.8,9.8,0,0,0,38.016-.018,10.2,10.2,0,0,0,28.9,5.605l3.389,2.628A6.1,6.1,0,0,1,38.016,4.019Z" transform="translate(-27.815 0.018)" fill="#ea4335"/>
</svg>
