<svg id="Emblema_-_fondo_oscuro" data-name="Emblema - fondo oscuro" xmlns="http://www.w3.org/2000/svg" width="267.793" height="160" viewBox="0 0 267.793 160">
  <g id="Grupo_3" data-name="Grupo 3" transform="translate(0 124.496)">
    <path id="Trazado_41" data-name="Trazado 41" d="M178.593,240.275h.708a15.078,15.078,0,0,0,3.823,7.665,9.149,9.149,0,0,0,7.315,2.822c6.607,0,8.306-4.844,8.306-7.288,0-9.357-19.444-3.809-19.444-17.3,0-4.985,4.719-9.687,11.374-9.687,4.153,0,6.135,1.739,7.646,1.739.849,0,1.038-.234,1.321-.987h.756v8.936h-.614c-1.463-4.327-3.02-9.029-9.156-9.029-5,0-7.787,3.1-7.787,5.878,0,8.7,20.247,4.515,20.247,16.976,0,6.161-5.333,11.427-13.026,11.427-3.87,0-7.976-1.787-9.251-1.787-.849,0-1.133.235-1.463,1.081h-.755Z" transform="translate(-178.593 -215.916)" fill="#fff"/>
    <path id="Trazado_42" data-name="Trazado 42" d="M224.5,217.706h15.526v.659h-4.341V250.53h4.341v.658H224.5v-.658h4.341V218.365H224.5Z" transform="translate(-196.226 -216.39)" fill="#fff"/>
    <path id="Trazado_43" data-name="Trazado 43" d="M251.088,249.7H255.1l14.064-34.14h1.274L285.3,249.7h4.059v.658H273.505V249.7h4.389l-5.475-12.6H261.093l-5.238,12.6h4.2v.658h-8.967Zm15.527-26.1-5.285,12.838h10.855Z" transform="translate(-206.44 -215.561)" fill="#fff"/>
    <path id="Trazado_44" data-name="Trazado 44" d="M314.233,217.706h12.129l8.165,23.419h.094l8.306-23.419h11.8v.659h-4.341V250.53h4.341v.658h-15.48v-.658h4.295V218.365h-.094l-11.61,32.823h-.755l-11.657-32.823h-.095V250.53h4.342v.658h-9.439v-.658h4.342V218.365h-4.342Z" transform="translate(-230.695 -216.39)" fill="#fff"/>
    <path id="Trazado_45" data-name="Trazado 45" d="M383.28,217.706h12.129l8.164,23.419h.095l8.306-23.419h11.8v.659h-4.342V250.53h4.342v.658h-15.48v-.658h4.295V218.365h-.094l-11.611,32.823h-.754l-11.657-32.823h-.094V250.53h4.341v.658H383.28v-.658h4.342V218.365H383.28Z" transform="translate(-257.217 -216.39)" fill="#fff"/>
    <path id="Trazado_46" data-name="Trazado 46" d="M450.028,249.7h4.012l14.064-34.14h1.274l14.867,34.14H488.3v.658H472.445V249.7h4.389l-5.475-12.6H460.033l-5.238,12.6H459v.658h-8.967Zm15.527-26.1L460.27,236.44h10.854Z" transform="translate(-282.857 -215.561)" fill="#fff"/>
    <path id="Trazado_47" data-name="Trazado 47" d="M513.326,217.706h15.527v.659h-4.342V250.53H532.3c4.106,0,8.731-2.633,10.336-9.97h.613v10.628H513.326v-.658h4.342V218.365h-4.342Z" transform="translate(-307.171 -216.39)" fill="#fff"/>
    <path id="Trazado_48" data-name="Trazado 48" d="M564.823,217.706H580.35v.659h-4.342V250.53H583.8c4.106,0,8.731-2.633,10.336-9.97h.613v10.628H564.823v-.658h4.342V218.365h-4.342Z" transform="translate(-326.952 -216.39)" fill="#fff"/>
  </g>
  <g id="Grupo_4" data-name="Grupo 4" transform="translate(83.059)">
    <path id="Trazado_49" data-name="Trazado 49" d="M378.737,36.411c6.639,6.624,8.442,16.479,8.911,22.269.47-5.792,2.273-15.647,8.911-22.269a24.221,24.221,0,0,1,2.909-2.468c.091-.066.185-.134.277-.2-1.831-10.614-10.067-19.087-11.989-20.953l-.108-.1-.107.1c-1.926,1.866-10.16,10.339-11.994,20.954.094.063.187.131.279.2A24.211,24.211,0,0,1,378.737,36.411Z" transform="translate(-337.306 -12.688)" fill="#fff"/>
    <path id="Trazado_50" data-name="Trazado 50" d="M396.559,123.5c-6.638-6.622-8.441-16.479-8.911-22.269-.469,5.79-2.273,15.645-8.911,22.267a24.443,24.443,0,0,1-2.912,2.471l-.278.2c1.834,10.613,10.067,19.083,11.991,20.951l.105.1.108-.1c1.924-1.867,10.156-10.337,11.991-20.951l-.277-.2A24.18,24.18,0,0,1,396.559,123.5Z" transform="translate(-337.306 -46.897)" fill="#fff"/>
    <path id="Trazado_51" data-name="Trazado 51" d="M448.013,86.731c-1.873-1.917-10.378-10.121-21.03-11.949-.066.09-.131.184-.2.276a24.17,24.17,0,0,1-2.478,2.9c-6.664,6.635-16.594,8.422-22.4,8.884,5.805.463,15.734,2.251,22.4,8.883a24.364,24.364,0,0,1,2.47,2.892l.2.276c10.655-1.821,19.163-10.03,21.036-11.947l.1-.107Z" transform="translate(-347.431 -36.677)" fill="#fff"/>
    <path id="Trazado_52" data-name="Trazado 52" d="M337.262,95.724c6.663-6.626,16.587-8.416,22.394-8.879-5.807-.462-15.731-2.251-22.394-8.88a24.177,24.177,0,0,1-2.474-2.9c-.069-.093-.134-.184-.2-.278-10.65,1.825-19.156,10.029-21.027,11.946l-.105.107.105.107c1.872,1.917,10.377,10.124,21.028,11.95.067-.091.131-.183.2-.277A24.5,24.5,0,0,1,337.262,95.724Z" transform="translate(-313.455 -36.68)" fill="#fff"/>
    <path id="Trazado_53" data-name="Trazado 53" d="M409.5,47.114v.007c0,9.36-5.724,17.6-9.5,22.027,4.44-3.765,12.713-9.465,22.107-9.472a24.224,24.224,0,0,1,3.807.306c.114.016.226.035.338.056,5.922-8.355,6.391-19.413,6.392-22.793,0-.18,0-.619,0-.619s-.453-.007-.641-.007c-3.417,0-14.491.48-22.861,6.371.018.112.039.222.054.336A23.925,23.925,0,0,1,409.5,47.114Z" transform="translate(-346.698 -21.933)" fill="#fff"/>
    <path id="Trazado_54" data-name="Trazado 54" d="M347.922,59.682h.009c9.393.006,17.663,5.7,22.1,9.467-3.778-4.425-9.5-12.667-9.507-22.027a24.244,24.244,0,0,1,.307-3.8c.02-.112.037-.225.055-.335-8.375-5.9-19.46-6.368-22.863-6.372-.184,0-.632.007-.632.007s-.006.452-.006.638c0,3.4.48,14.438,6.392,22.778.114-.019.226-.038.337-.055A24.488,24.488,0,0,1,347.922,59.682Z" transform="translate(-322.649 -21.933)" fill="#fff"/>
    <path id="Trazado_55" data-name="Trazado 55" d="M422.091,108.683h0c-9.415-.006-17.7-5.73-22.135-9.493,3.779,4.42,9.522,12.675,9.53,22.054a24.079,24.079,0,0,1-.308,3.8c-.018.111-.036.223-.057.336,8.372,5.892,19.446,6.366,22.863,6.37.188,0,.641,0,.641,0s0-.442,0-.62c0-3.381-.47-14.447-6.4-22.8-.114.018-.225.038-.339.054A24.448,24.448,0,0,1,422.091,108.683Z" transform="translate(-346.68 -46.107)" fill="#fff"/>
    <path id="Trazado_56" data-name="Trazado 56" d="M360.528,121.275v-.006c.006-9.354,5.718-17.589,9.494-22.016-4.445,3.764-12.707,9.453-22.093,9.461a24.577,24.577,0,0,1-3.81-.306l-.337-.057c-5.913,8.34-6.39,19.375-6.393,22.778,0,.188.006.641.006.641s.448,0,.632,0c3.4,0,14.487-.473,22.863-6.37-.018-.113-.038-.225-.055-.336A24.2,24.2,0,0,1,360.528,121.275Z" transform="translate(-322.649 -46.131)" fill="#fff"/>
  </g>
</svg>
