<svg id="Componente_25_1" data-name="Componente 25 – 1" xmlns="http://www.w3.org/2000/svg" width="99.998" height="100" viewBox="0 0 99.998 100">
  <path id="Trazado_419" data-name="Trazado 419" d="M138.195,409.013c6.593,6.6,8.384,16.426,8.851,22.2.466-5.773,2.257-15.6,8.85-22.2a24.243,24.243,0,0,1,2.889-2.46l.275-.2c-1.818-10.579-10-19.024-11.906-20.884l-.108-.1-.106.1c-1.913,1.86-10.09,10.305-11.913,20.887.094.063.186.13.277.2A24.04,24.04,0,0,1,138.195,409.013Z" transform="translate(-97.047 -385.367)" fill="#fff"/>
  <path id="Trazado_420" data-name="Trazado 420" d="M155.9,496.112c-6.593-6.6-8.384-16.425-8.85-22.2-.467,5.77-2.258,15.594-8.851,22.194a24.247,24.247,0,0,1-2.892,2.463l-.276.2c1.822,10.579,10,19.022,11.909,20.883l.105.1.108-.1c1.911-1.861,10.086-10.3,11.908-20.883l-.275-.2A24.066,24.066,0,0,1,155.9,496.112Z" transform="translate(-97.047 -419.753)" fill="#fff"/>
  <path id="Trazado_421" data-name="Trazado 421" d="M207.179,459.373c-1.86-1.911-10.307-10.089-20.886-11.91-.065.089-.13.183-.2.275a24.116,24.116,0,0,1-2.46,2.89c-6.62,6.613-16.481,8.395-22.246,8.855,5.765.461,15.626,2.244,22.246,8.855a24.385,24.385,0,0,1,2.453,2.883l.2.276c10.582-1.816,19.032-10,20.892-11.909l.1-.108Z" transform="translate(-107.284 -409.481)" fill="#fff"/>
  <path id="Trazado_422" data-name="Trazado 422" d="M96.58,468.336c6.617-6.605,16.473-8.39,22.24-8.852-5.767-.46-15.623-2.244-22.24-8.851a24.059,24.059,0,0,1-2.458-2.888c-.068-.093-.133-.184-.2-.277-10.578,1.819-19.025,10-20.884,11.907l-.1.106.1.108C74.9,461.5,83.346,469.68,93.925,471.5c.066-.091.13-.183.2-.276A24.205,24.205,0,0,1,96.58,468.336Z" transform="translate(-72.935 -409.483)" fill="#fff"/>
  <path id="Trazado_423" data-name="Trazado 423" d="M168.914,419.76v.007c0,9.33-5.685,17.545-9.437,21.956,4.41-3.752,12.626-9.434,21.956-9.442a23.96,23.96,0,0,1,3.782.3q.169.024.335.056c5.882-8.328,6.347-19.35,6.349-22.719,0-.179,0-.618,0-.618s-.45-.007-.637-.007c-3.394,0-14.392.479-22.7,6.35.019.112.04.222.054.335A23.958,23.958,0,0,1,168.914,419.76Z" transform="translate(-106.542 -394.66)" fill="#fff"/>
  <path id="Trazado_424" data-name="Trazado 424" d="M107.331,432.287h.008c9.329.006,17.542,5.685,21.953,9.437-3.753-4.411-9.435-12.625-9.442-21.956a24.262,24.262,0,0,1,.3-3.784c.021-.111.037-.223.055-.333-8.317-5.877-19.326-6.348-22.707-6.352-.182,0-.627.007-.627.007s-.006.452-.006.637c0,3.392.477,14.391,6.349,22.7.114-.019.224-.039.336-.055A24.372,24.372,0,0,1,107.331,432.287Z" transform="translate(-82.229 -394.66)" fill="#fff"/>
  <path id="Trazado_425" data-name="Trazado 425" d="M181.421,481.332h0c-9.35,0-17.58-5.712-21.984-9.463,3.753,4.406,9.456,12.634,9.464,21.984a24.073,24.073,0,0,1-.306,3.787c-.018.111-.035.222-.056.335,8.315,5.873,19.314,6.346,22.707,6.35.187,0,.637,0,.637,0s0-.441,0-.618c0-3.37-.466-14.4-6.354-22.727-.114.018-.225.037-.336.054A24.29,24.29,0,0,1,181.421,481.332Z" transform="translate(-106.524 -418.958)" fill="#fff"/>
  <path id="Trazado_426" data-name="Trazado 426" d="M119.85,493.882v-.005c.006-9.324,5.679-17.532,9.429-21.945-4.414,3.751-12.62,9.422-21.942,9.431a24.458,24.458,0,0,1-3.783-.3l-.335-.057c-5.873,8.313-6.347,19.312-6.35,22.7,0,.188.006.639.006.639s.445,0,.627,0c3.381,0,14.389-.472,22.707-6.35l-.055-.335A24.2,24.2,0,0,1,119.85,493.882Z" transform="translate(-82.229 -418.982)" fill="#fff"/>
</svg>
