<svg xmlns="http://www.w3.org/2000/svg" width="35.714" height="50" viewBox="0 0 35.714 50">
  <g id="Grupo_292" data-name="Grupo 292" transform="translate(-245 -446)">
    <path id="Trazado_441" data-name="Trazado 441" d="M889.34,719.379a17.874,17.874,0,0,0-17.857,17.857c0,8.569,12.426,27,14.916,30.6a3.577,3.577,0,0,0,5.882,0c2.49-3.6,14.916-22.03,14.916-30.6A17.877,17.877,0,0,0,889.34,719.379Z" transform="translate(-626.483 -273.379)" fill="#f42434"/>
    <g id="Grupo_291" data-name="Grupo 291" transform="translate(250 452.25)">
      <path id="Trazado_419" data-name="Trazado 419" d="M135.819,391.279a9.017,9.017,0,0,1,2.213,5.55,9.015,9.015,0,0,1,2.212-5.55,6.055,6.055,0,0,1,.722-.615l.069-.05a10.578,10.578,0,0,0-2.977-5.221l-.027-.026-.026.026a10.579,10.579,0,0,0-2.978,5.222l.069.05A6,6,0,0,1,135.819,391.279Z" transform="translate(-125.532 -385.367)" fill="#fff"/>
      <path id="Trazado_420" data-name="Trazado 420" d="M140.244,479.465a9.014,9.014,0,0,1-2.212-5.549,9.014,9.014,0,0,1-2.213,5.549,6.061,6.061,0,0,1-.723.616l-.069.049A10.583,10.583,0,0,0,138,485.35l.026.025.027-.025a10.582,10.582,0,0,0,2.977-5.221l-.069-.049A6.025,6.025,0,0,1,140.244,479.465Z" transform="translate(-125.532 -460.375)" fill="#fff"/>
      <path id="Trazado_421" data-name="Trazado 421" d="M172.836,450.441a10.58,10.58,0,0,0-5.222-2.978l-.05.069a6.03,6.03,0,0,1-.615.723,9.022,9.022,0,0,1-5.562,2.214,9.026,9.026,0,0,1,5.562,2.214,6.093,6.093,0,0,1,.613.721l.05.069a10.575,10.575,0,0,0,5.223-2.977l.026-.027Z" transform="translate(-147.862 -437.967)" fill="#fff"/>
      <path id="Trazado_422" data-name="Trazado 422" d="M78.847,452.686a9.027,9.027,0,0,1,5.56-2.213,9.023,9.023,0,0,1-5.56-2.213,6.018,6.018,0,0,1-.614-.722l-.05-.069a10.577,10.577,0,0,0-5.221,2.977l-.026.027.026.027a10.58,10.58,0,0,0,5.221,2.978l.05-.069A6.044,6.044,0,0,1,78.847,452.686Z" transform="translate(-72.935 -437.972)" fill="#fff"/>
      <path id="Trazado_423" data-name="Trazado 423" d="M161.836,411.914v0a9.013,9.013,0,0,1-2.359,5.489,9.018,9.018,0,0,1,5.489-2.36,5.994,5.994,0,0,1,.946.076l.084.014a10.493,10.493,0,0,0,1.587-5.68c0-.045,0-.155,0-.155l-.159,0a10.5,10.5,0,0,0-5.676,1.587c0,.028.01.056.013.084A5.99,5.99,0,0,1,161.836,411.914Z" transform="translate(-146.243 -405.639)" fill="#fff"/>
      <path id="Trazado_424" data-name="Trazado 424" d="M99.485,415.046h0a9.016,9.016,0,0,1,5.488,2.359,9.017,9.017,0,0,1-2.361-5.489,6.066,6.066,0,0,1,.076-.946c.005-.028.009-.056.014-.083a10.494,10.494,0,0,0-5.677-1.588l-.157,0s0,.113,0,.159a10.489,10.489,0,0,0,1.587,5.676l.084-.014A6.1,6.1,0,0,1,99.485,415.046Z" transform="translate(-93.209 -405.639)" fill="#fff"/>
      <path id="Trazado_425" data-name="Trazado 425" d="M164.929,474.235h0a9.021,9.021,0,0,1-5.5-2.366,9.025,9.025,0,0,1,2.366,5.5,6.019,6.019,0,0,1-.076.947c0,.028-.009.055-.014.084a10.494,10.494,0,0,0,5.677,1.587h.159s0-.11,0-.154a10.49,10.49,0,0,0-1.589-5.682l-.084.014A6.074,6.074,0,0,1,164.929,474.235Z" transform="translate(-146.205 -458.641)" fill="#fff"/>
      <path id="Trazado_426" data-name="Trazado 426" d="M102.614,477.42h0a9.015,9.015,0,0,1,2.357-5.486,9.018,9.018,0,0,1-5.486,2.358,6.122,6.122,0,0,1-.946-.076l-.084-.014a10.487,10.487,0,0,0-1.587,5.676c0,.047,0,.16,0,.16h.157a10.491,10.491,0,0,0,5.677-1.587l-.014-.084A6.051,6.051,0,0,1,102.614,477.42Z" transform="translate(-93.209 -458.694)" fill="#fff"/>
    </g>
  </g>
</svg>
