<svg id="Componente_26_1" data-name="Componente 26 – 1" xmlns="http://www.w3.org/2000/svg" width="157.5" height="41.93" viewBox="0 0 157.5 41.93">
  <g id="Grupo_215" data-name="Grupo 215" transform="translate(45.981 13.546)">
    <path id="Trazado_411" data-name="Trazado 411" d="M252.214,449.048h.295a6.311,6.311,0,0,0,1.592,3.2,3.8,3.8,0,0,0,3.046,1.179,3.127,3.127,0,0,0,3.459-3.046c0-3.911-8.1-1.592-8.1-7.232,0-2.083,1.965-4.049,4.736-4.049,1.73,0,2.555.727,3.184.727.354,0,.432-.1.55-.413h.314v3.735h-.255c-.609-1.808-1.258-3.774-3.813-3.774-2.083,0-3.243,1.3-3.243,2.457,0,3.636,8.431,1.887,8.431,7.1,0,2.575-2.221,4.776-5.424,4.776a23.963,23.963,0,0,1-3.852-.747c-.354,0-.472.1-.609.452h-.314Z" transform="translate(-252.214 -438.867)" fill="#fff"/>
    <path id="Trazado_412" data-name="Trazado 412" d="M298.118,440.328h6.466v.275h-1.808v13.443h1.808v.275h-6.466v-.275h1.808V440.6h-1.808Z" transform="translate(-286.345 -439.778)" fill="#fff"/>
    <path id="Trazado_413" data-name="Trazado 413" d="M324.71,452.452h1.67l5.857-14.268h.531l6.191,14.268h1.69v.275h-6.6v-.275h1.828l-2.28-5.267h-4.717l-2.182,5.267h1.749v.275H324.71Zm6.466-10.908-2.2,5.365h4.52Z" transform="translate(-306.116 -438.184)" fill="#fff"/>
    <path id="Trazado_414" data-name="Trazado 414" d="M387.855,440.328h5.051l3.4,9.788h.039l3.459-9.788h4.914v.275H402.91v13.443h1.808v.275h-6.446v-.275h1.788V440.6h-.039l-4.835,13.718h-.314L390.017,440.6h-.04v13.443h1.809v.275h-3.931v-.275h1.808V440.6h-1.808Z" transform="translate(-353.066 -439.778)" fill="#fff"/>
    <path id="Trazado_415" data-name="Trazado 415" d="M456.9,440.328h5.051l3.4,9.788h.039l3.459-9.788h4.914v.275h-1.808v13.443h1.808v.275h-6.446v-.275h1.788V440.6h-.039l-4.835,13.718h-.314L459.064,440.6h-.039v13.443h1.808v.275H456.9v-.275h1.808V440.6H456.9Z" transform="translate(-404.404 -439.778)" fill="#fff"/>
    <path id="Trazado_416" data-name="Trazado 416" d="M523.65,452.452h1.671l5.856-14.268h.531l6.191,14.268h1.69v.275h-6.6v-.275h1.828l-2.28-5.267h-4.717l-2.181,5.267h1.749v.275H523.65Zm6.466-10.908-2.2,5.365h4.52Z" transform="translate(-454.033 -438.184)" fill="#fff"/>
    <path id="Trazado_417" data-name="Trazado 417" d="M586.947,440.328h6.466v.275h-1.808v13.443h3.243c1.71,0,3.636-1.1,4.3-4.167h.255v4.442H586.947v-.275h1.808V440.6h-1.808Z" transform="translate(-501.096 -439.778)" fill="#fff"/>
    <path id="Trazado_418" data-name="Trazado 418" d="M638.445,440.328h6.466v.275H643.1v13.443h3.243c1.71,0,3.636-1.1,4.3-4.167h.255v4.442h-12.46v-.275h1.808V440.6h-1.808Z" transform="translate(-539.386 -439.778)" fill="#fff"/>
  </g>
  <g id="Grupo_216" data-name="Grupo 216">
    <path id="Trazado_419" data-name="Trazado 419" d="M136.355,395.282c2.765,2.769,3.516,6.887,3.711,9.308.2-2.421.946-6.54,3.711-9.308a10.159,10.159,0,0,1,1.211-1.031l.115-.083c-.762-4.436-4.192-7.977-4.992-8.757l-.045-.044-.044.044c-.8.78-4.231,4.321-5,8.758.039.026.078.055.116.083A10.077,10.077,0,0,1,136.355,395.282Z" transform="translate(-119.102 -385.367)" fill="#fff"/>
    <path id="Trazado_420" data-name="Trazado 420" d="M143.777,483.223c-2.764-2.767-3.515-6.887-3.711-9.307-.2,2.42-.947,6.539-3.711,9.306a10.175,10.175,0,0,1-1.213,1.033l-.116.082c.764,4.436,4.192,7.976,4.994,8.756l.044.042.045-.042c.8-.78,4.229-4.321,4.993-8.756l-.115-.083A10.1,10.1,0,0,1,143.777,483.223Z" transform="translate(-119.102 -451.205)" fill="#fff"/>
    <path id="Trazado_421" data-name="Trazado 421" d="M180.588,452.457c-.78-.8-4.322-4.23-8.758-4.994-.027.037-.054.077-.083.115a10.11,10.11,0,0,1-1.032,1.212c-2.776,2.773-6.91,3.52-9.328,3.713,2.417.193,6.552.941,9.328,3.713a10.221,10.221,0,0,1,1.028,1.209l.084.116c4.437-.761,7.98-4.192,8.76-4.993l.043-.045Z" transform="translate(-138.702 -431.537)" fill="#fff"/>
    <path id="Trazado_422" data-name="Trazado 422" d="M82.85,456.219c2.775-2.77,6.907-3.518,9.325-3.711-2.418-.193-6.551-.941-9.325-3.711a10.092,10.092,0,0,1-1.031-1.211l-.084-.116c-4.435.763-7.977,4.192-8.757,4.993l-.044.045.044.045c.779.8,4.321,4.231,8.757,4.994l.083-.116A10.144,10.144,0,0,1,82.85,456.219Z" transform="translate(-72.935 -431.541)" fill="#fff"/>
    <path id="Trazado_423" data-name="Trazado 423" d="M163.434,413.685v0c0,3.912-2.384,7.357-3.957,9.206,1.849-1.573,5.294-3.956,9.206-3.959a10.049,10.049,0,0,1,1.586.128c.047.007.094.015.141.024,2.467-3.492,2.661-8.114,2.662-9.526,0-.075,0-.259,0-.259l-.267,0c-1.423,0-6.035.2-9.52,2.662.008.047.017.093.023.141A10.043,10.043,0,0,1,163.434,413.685Z" transform="translate(-137.281 -403.161)" fill="#fff"/>
    <path id="Trazado_424" data-name="Trazado 424" d="M101.256,418.938h0c3.912,0,7.355,2.384,9.2,3.957-1.574-1.849-3.956-5.294-3.959-9.206a10.174,10.174,0,0,1,.128-1.587c.009-.046.015-.094.023-.14-3.487-2.464-8.1-2.662-9.521-2.663l-.263,0s0,.19,0,.267c0,1.422.2,6.034,2.662,9.52l.141-.023A10.221,10.221,0,0,1,101.256,418.938Z" transform="translate(-90.73 -403.161)" fill="#fff"/>
    <path id="Trazado_425" data-name="Trazado 425" d="M168.652,475.837h0c-3.921,0-7.371-2.395-9.218-3.968,1.573,1.847,3.965,5.3,3.968,9.218a10.093,10.093,0,0,1-.128,1.588c-.007.047-.015.093-.024.14,3.486,2.462,8.1,2.661,9.521,2.662l.267,0s0-.185,0-.259c0-1.413-.2-6.038-2.664-9.53l-.141.023A10.186,10.186,0,0,1,168.652,475.837Z" transform="translate(-137.248 -449.683)" fill="#fff"/>
    <path id="Trazado_426" data-name="Trazado 426" d="M106.5,481.136v0c0-3.909,2.381-7.351,3.954-9.2-1.851,1.573-5.292,3.951-9.2,3.954a10.262,10.262,0,0,1-1.586-.128l-.14-.024c-2.463,3.486-2.661,8.1-2.662,9.52,0,.079,0,.268,0,.268l.263,0c1.418,0,6.033-.2,9.521-2.663l-.023-.14A10.147,10.147,0,0,1,106.5,481.136Z" transform="translate(-90.73 -449.73)" fill="#fff"/>
  </g>
</svg>
